<?xml version="1.0" encoding="UTF-8" standalone="no"?>
<!-- Created with Inkscape (http://www.inkscape.org/) -->

<svg
   version="1.1"
   id="svg1"
   width="430.68533"
   height="129.63068"
   viewBox="0 0 430.68533 129.63068"
   xmlns="http://www.w3.org/2000/svg"
   xmlns:svg="http://www.w3.org/2000/svg">
  <defs
     id="defs1" />
  <g
     id="g1">
    <path
       id="path1"
       d="M -7.08669,-10.40643 H 7.08668 V 3.76694 H -7.08669 Z"
       style="fill:none;stroke:#000000;stroke-width:0.3985;stroke-linecap:butt;stroke-linejoin:miter;stroke-miterlimit:10;stroke-dasharray:none;stroke-opacity:1"
       transform="matrix(1.3333333,0,0,-1.3333333,9.7146667,5.288)" />
    <path
       id="path2"
       d="M -7.08669,-32.065 H 7.08668 v 14.17337 H -7.08669 Z"
       style="fill:none;stroke:#000000;stroke-width:0.3985;stroke-linecap:butt;stroke-linejoin:miter;stroke-miterlimit:10;stroke-dasharray:none;stroke-opacity:1"
       transform="matrix(1.3333333,0,0,-1.3333333,9.7146667,5.288)" />
    <path
       id="path3"
       d="M -7.08669,-53.72359 H 7.08668 v 14.17337 H -7.08669 Z"
       style="fill:none;stroke:#000000;stroke-width:0.3985;stroke-linecap:butt;stroke-linejoin:miter;stroke-miterlimit:10;stroke-dasharray:none;stroke-opacity:1"
       transform="matrix(1.3333333,0,0,-1.3333333,9.7146667,5.288)" />
    <path
       id="path4"
       d="M -7.08669,-75.38217 H 7.08668 V -61.2088 H -7.08669 Z"
       style="fill:none;stroke:#000000;stroke-width:0.3985;stroke-linecap:butt;stroke-linejoin:miter;stroke-miterlimit:10;stroke-dasharray:2.98883, 2.98883;stroke-dashoffset:0;stroke-opacity:1"
       transform="matrix(1.3333333,0,0,-1.3333333,9.7146667,5.288)" />
    <path
       id="path5"
       d="m 0,-10.60568 v -7.08669"
       style="fill:none;stroke:#000000;stroke-width:0.3985;stroke-linecap:butt;stroke-linejoin:miter;stroke-miterlimit:10;stroke-dasharray:none;stroke-opacity:1"
       transform="matrix(1.3333333,0,0,-1.3333333,9.7146667,5.288)" />
    <path
       id="path6"
       d="m 0,-32.26427 v -7.08668"
       style="fill:none;stroke:#000000;stroke-width:0.3985;stroke-linecap:butt;stroke-linejoin:miter;stroke-miterlimit:10;stroke-dasharray:none;stroke-opacity:1"
       transform="matrix(1.3333333,0,0,-1.3333333,9.7146667,5.288)" />
    <path
       id="path7"
       d="m 0,-53.92284 v -7.0867"
       style="fill:none;stroke:#000000;stroke-width:0.3985;stroke-linecap:butt;stroke-linejoin:miter;stroke-miterlimit:10;stroke-dasharray:none;stroke-opacity:1"
       transform="matrix(1.3333333,0,0,-1.3333333,9.7146667,5.288)" />
    <path
       id="path8"
       d="M 10.80493,-10.1813 H 124.1922 V 3.31975 H 10.80493 Z"
       style="fill:none;stroke:#000000;stroke-width:0.3985;stroke-linecap:butt;stroke-linejoin:miter;stroke-miterlimit:10;stroke-dasharray:none;stroke-opacity:1"
       transform="matrix(1.3333333,0,0,-1.3333333,9.7146667,5.288)" />
    <path
       id="path9"
       d="m 1.1595,-0.4910625 c 0.6210937,0.4921875 1.1132812,0.703125 1.875,0.703125 1.1835937,0 1.9335937,-1.06640625 1.9335937,-2.0859375 0,-0.8203125 -0.46875,-1.59375 -1.265625,-1.921875 C 3.0930937,-4.0418437 2.3430937,-4.0184062 1.81575,-4.3465312 1.4173125,-4.592625 1.1829375,-5.0145 1.1829375,-5.4598125 c 0,-0.7851562 0.6679687,-1.2890625 1.3710937,-1.2890625 0.9960938,0 1.6757813,0.7851563 1.8398438,1.78125 0.023437,0.1523438 0,0.421875 0.1757812,0.421875 0.1171875,0 0.1171875,-0.09375 0.1171875,-0.1875 V -6.8895 c 0,-0.070312 -0.011719,-0.140625 -0.09375,-0.140625 -0.1523437,0 -0.2578125,0.28125 -0.3398437,0.4101563 -0.058594,0.082031 -0.1289063,0.1875 -0.1640625,0.28125 -0.4101563,-0.3984375 -0.8789063,-0.6914063 -1.546875,-0.6914063 -0.984375,0 -1.9921875,0.6796875 -1.9921875,1.9453125 0,1.03125 0.75,1.7109375 1.734375,1.921875 0.2109375,0.046875 0.4101562,0.1054688 0.609375,0.1523438 0.5625,0.1289062 1.125,0.2695312 1.359375,0.984375 0.046875,0.1523437 0.082031,0.3164062 0.082031,0.46875 0,0.7382812 -0.515625,1.45312495 -1.3476562,1.45312495 -0.9960938,0 -1.9570313,-0.52734375 -2.15625,-1.66406245 -0.0117188,-0.09375 -0.0234375,-0.1875 -0.0351563,-0.28125 v -0.070312 c 0,-0.1054688 -0.046875,-0.1523438 -0.12890625,-0.1523438 -0.10546875,0 -0.1171875,0.082031 -0.1171875,0.1523438 V 0.071438 c 0,0.0703125 0.0117188,0.140625 0.09375,0.140625 0.15234375,0 0.2578125,-0.28125 0.33984375,-0.41015625 0.0585938,-0.09375 0.1289062,-0.1875 0.1757815,-0.29296925 z m 4.7021484,-6.3164062 v 0.3046875 c 0.140625,0 0.3046875,-0.011719 0.4570313,-0.011719 0.3046875,0 0.5742187,0.035156 0.5742187,0.1757813 v 5.2734375 c 0,0.70312495 -0.5859375,0.74999995 -1.03125,0.74999995 v 0.3046875 h 2.3320313 v -0.3046875 c -0.4335938,0 -1.03125,-0.0585938 -1.03125,-0.72656245 0,-0.09375 0,-0.1875 0,-0.2695313 V -6.23325 c 0.1640625,0.1757813 0.2929687,0.3984375 0.421875,0.5976563 1.2304687,1.78125 2.4257813,3.5859375 3.6445313,5.36718745 0.07031,0.10546875 0.140625,0.2578125 0.28125,0.2578125 0.105469,0 0.128906,-0.0703125 0.128906,-0.15234375 v -5.625 c 0,-0.6679687 0.597656,-0.7148437 1.03125,-0.7148437 v -0.3046875 h -2.332031 v 0.3046875 c 0.421875,0 1.019531,0.046875 1.019531,0.703125 v 4.2773437 L 7.7600859,-6.79575 l -0.1875,-0.011719 z m 10.7871096,0 v 0.3046875 c 0.140625,0 0.304687,-0.011719 0.457031,-0.011719 0.304688,0 0.574219,0.035156 0.574219,0.1757813 v 5.2734375 c 0,0.70312495 -0.585938,0.74999995 -1.03125,0.74999995 v 0.3046875 h 2.332031 v -0.3046875 c -0.433594,0 -1.03125,-0.0585938 -1.03125,-0.72656245 0,-0.09375 0,-0.1875 0,-0.2695313 V -6.23325 c 0.164063,0.1757813 0.292969,0.3984375 0.421875,0.5976563 1.230469,1.78125 2.425781,3.5859375 3.644531,5.36718745 0.07031,0.10546875 0.140625,0.2578125 0.28125,0.2578125 0.105469,0 0.128907,-0.0703125 0.128907,-0.15234375 v -5.625 c 0,-0.6679687 0.597656,-0.7148437 1.03125,-0.7148437 V -6.8074687 H 21.12532 v 0.3046875 c 0.421875,0 1.019532,0.046875 1.019532,0.703125 v 4.2773437 l -3.597657,-5.2734375 -0.1875,-0.011719 z m 9.486328,2.34375 c -1.253906,0.1289062 -2.0625,1.1835937 -2.0625,2.34375 0,1.12499995 0.878906,2.22656245 2.214844,2.22656245 1.195312,0 2.191406,-0.984375 2.191406,-2.23828125 0,-1.1835937 -0.890625,-2.34375 -2.214844,-2.34375 -0.04687,0 -0.09375,0.011719 -0.128906,0.011719 z m -1.230469,2.5664062 v -0.4335937 c 0,-0.7617188 0.246094,-1.9101563 1.371094,-1.9101563 0.808594,0 1.265625,0.6796875 1.347656,1.4296875 0.02344,0.2226563 0.02344,0.4335938 0.02344,0.65625 0,0.6445313 -0.07031,1.453125 -0.703125,1.81640625 -0.199219,0.12890625 -0.421875,0.1875 -0.65625,0.1875 -0.726563,0 -1.230469,-0.5625 -1.335938,-1.34765625 -0.02344,-0.1289062 -0.02344,-0.2578125 -0.04687,-0.3984375 z m 7.168945,-4.9101562 v 0.3046875 h 0.164063 c 0.351562,0 0.621094,0.035156 0.621094,0.6210937 L 32.847,-3.79575 c -0.246094,-0.3984375 -0.808594,-0.609375 -1.265625,-0.609375 -1.230469,0 -2.203125,1.0546875 -2.203125,2.2617188 0,1.0664062 0.820312,2.24999995 2.132812,2.24999995 0.515625,0 0.984375,-0.2578125 1.3125,-0.65625 v 0.65625 l 1.476563,-0.1171875 v -0.3046875 h -0.164063 c -0.316406,0 -0.609375,-0.0351563 -0.609375,-0.50390625 v -6.1054687 z m -1.863281,4.9101562 v -0.1523437 c 0,-0.7382813 0.09375,-1.4882813 0.785156,-1.9453125 0.199219,-0.1171875 0.421875,-0.1875 0.65625,-0.1875 0.492188,0 1.183594,0.3984375 1.183594,1.03125 0,0.1289062 -0.01172,0.2578125 -0.01172,0.3867187 v 1.6523438 c 0,0.1289062 -0.04687,0.21093745 -0.117187,0.3164062 -0.257813,0.38671875 -0.691406,0.6796875 -1.160156,0.6796875 -0.726563,0 -1.183594,-0.66796875 -1.289063,-1.359375 -0.02344,-0.140625 -0.02344,-0.28125 -0.04687,-0.421875 z m 5.487305,-0.4101562 h 2.871094 c 0.105468,0 0.164062,-0.070312 0.164062,-0.1875 0,-1.0546875 -0.65625,-1.96875 -1.769531,-1.96875 -1.21875,0 -2.097656,1.0898437 -2.097656,2.2734375 0,0.9140625 0.503906,1.73437495 1.382812,2.13281245 0.234375,0.09375 0.492188,0.1640625 0.75,0.1640625 h 0.02344 c 0.773437,0 1.40625,-0.43359375 1.675781,-1.20703125 0.01172,-0.023437 0.01172,-0.058594 0.01172,-0.09375 0,-0.070312 -0.03516,-0.1171875 -0.105469,-0.1171875 -0.152344,0 -0.210938,0.328125 -0.269531,0.43359375 -0.257813,0.4453125 -0.726563,0.7265625 -1.253907,0.7265625 -0.363281,0 -0.679687,-0.2109375 -0.949218,-0.48046875 -0.398438,-0.4570312 -0.433594,-1.1015625 -0.433594,-1.6757812 z m 0.01172,-0.2109375 c 0,-0.7734375 0.410156,-1.7226563 1.230468,-1.7226563 h 0.04687 c 0.972657,0.09375 0.960938,1.125 1.066407,1.7226563 z m 0,0"
       style="fill:#000000;fill-opacity:1;fill-rule:nonzero;stroke:none"
       aria-label="SNNode"
       transform="matrix(1.3333333,0,0,1.3333333,73.704,14.436)" />
    <path
       id="path10"
       d="M 10.80493,-93.05923 H 124.1922 V 3.31975 H 10.80493 Z"
       style="fill:none;stroke:#000000;stroke-width:0.3985;stroke-linecap:butt;stroke-linejoin:miter;stroke-miterlimit:10;stroke-dasharray:none;stroke-opacity:1"
       transform="matrix(1.3333333,0,0,-1.3333333,9.7146667,5.288)" />
    <path
       id="path11"
       d="m 14.8137,-88.29048 h 104.88312 v 73.70189 H 14.8137 Z"
       style="fill:#bfbfbf;fill-opacity:1;fill-rule:nonzero;stroke:#000000;stroke-width:0.3985;stroke-linecap:butt;stroke-linejoin:miter;stroke-miterlimit:10;stroke-dasharray:none;stroke-opacity:1"
       transform="matrix(1.3333333,0,0,-1.3333333,9.7146667,5.288)" />
    <path
       id="path12"
       d="M 14.8137,-28.08965 H 119.69682 V -14.5886 H 14.8137 Z"
       style="fill:none;stroke:#000000;stroke-width:0.3985;stroke-linecap:butt;stroke-linejoin:miter;stroke-miterlimit:10;stroke-dasharray:none;stroke-opacity:1"
       transform="matrix(1.3333333,0,0,-1.3333333,9.7146667,5.288)" />
    <path
       id="path13"
       d="m 0.32854688,-6.7857812 v 0.3046875 c 0.12890625,0 0.2578125,0 0.375,0 0.36328122,0 0.65625002,0.046875 0.65625002,0.4453125 v 5.2851562 c 0,0.38671875 -0.328125,0.4453125 -0.66796877,0.4453125 -0.12890625,0 -0.2578125,-0.0117188 -0.36328125,-0.0117188 v 0.3046875 H 6.0707344 L 6.4808906,-2.57875 H 6.2347969 C 6.0824531,-1.6764062 5.9652656,-0.6803125 4.8871406,-0.3990625 4.5707344,-0.32875 4.2543281,-0.31703125 3.9379219,-0.31703125 H 2.6605781 c -0.1992187,0 -0.421875,-0.0234375 -0.421875,-0.31640625 V -3.375625 h 0.9140625 c 0.3515625,0 0.7382813,0.023437 0.9375,0.3398438 0.1171875,0.2109375 0.1289063,0.4804687 0.1289063,0.7265625 v 0.09375 H 4.4652656 V -4.8521875 H 4.2191719 v 0.1054688 c 0,0.5273437 -0.1289063,0.9609375 -0.7148438,1.0429687 -0.1875,0.011719 -0.375,0.011719 -0.5625,0.011719 h -0.703125 v -2.4375 c 0,-0.3398438 0.2109375,-0.3515625 0.421875,-0.3515625 h 1.1953125 c 0.5859375,0 1.3125,0 1.6992188,0.5390625 0.3046875,0.3984373 0.3515625,0.925781 0.4101562,1.394531 H 6.2113594 L 5.9418281,-6.7857812 Z M 7.096125,-4.2896875 V -3.985 h 0.1523438 c 0.328125,0 0.6328125,0.035156 0.6328125,0.4921875 v 2.75390625 c 0,0.41015625 -0.28125,0.421875 -0.7265625,0.421875 H 7.096125 v 0.3046875 h 2.25 v -0.3046875 H 9.0883125 c -0.28125,0 -0.515625,-0.046875 -0.515625,-0.41015625 v -1.828125 c 0,-0.7148437 0.3632813,-1.6289062 1.359375,-1.6289062 0.6328125,0 0.6914065,0.6914062 0.6914065,1.1132812 v 2.37890625 c 0,0.33984375 -0.292969,0.375 -0.597656,0.375 H 9.8500313 v 0.3046875 h 2.2499997 v -0.3046875 h -0.246093 c -0.269532,0 -0.527344,-0.046875 -0.527344,-0.38671875 v -2.1796875 c 0,-0.328125 -0.01172,-0.6679687 -0.175781,-0.9609375 -0.222657,-0.4453125 -0.738282,-0.5625 -1.195313,-0.5625 -0.609375,0 -1.2304687,0.421875 -1.4296875,1.0195313 L 8.5140938,-4.406875 Z m 8.789063,0.4335938 c -0.257813,0.023437 -0.46875,0.1757812 -0.46875,0.4570312 0,0.2695313 0.1875,0.4570313 0.457031,0.4570313 0.304687,0 0.457031,-0.2109375 0.457031,-0.4921875 v -0.058594 c -0.09375,-0.7265625 -0.9375,-0.9726562 -1.523437,-0.9726562 -1.207032,0 -2.167969,1.0664062 -2.167969,2.3085937 0,1.125 0.878906,2.26171875 2.167969,2.26171875 0.65625,0 1.300781,-0.36328125 1.570312,-1.06640625 0.02344,-0.0585937 0.07031,-0.140625 0.07031,-0.2109375 0,-0.070312 -0.04687,-0.1289062 -0.117187,-0.1289062 -0.152344,0 -0.246094,0.3867187 -0.316406,0.51562495 -0.234375,0.38671875 -0.644531,0.62109375 -1.089844,0.6328125 -1.066406,0 -1.394531,-1.06640625 -1.453125,-1.85156245 v -0.1171875 c 0,-0.796875 0.199219,-1.9921875 1.289063,-2.0976563 h 0.08203 c 0.363281,0 0.761719,0.1171875 1.042969,0.3632813 z m 1.180664,-2.953125 v 0.3046875 h 0.152343 c 0.363282,0 0.621094,0.035156 0.621094,0.515625 v 5.0273437 c 0,0.0703125 0.01172,0.140625 0.01172,0.22265625 0,0.375 -0.269531,0.421875 -0.550781,0.421875 h -0.234375 v 0.3046875 h 2.226562 v -0.3046875 h -0.257812 c -0.28125,0 -0.527344,-0.046875 -0.527344,-0.43359375 V -6.9264062 Z M 20.616633,-3.7975 c 0.246094,-0.3046875 0.691406,-0.4453125 1.054687,-0.4453125 0.738282,0 1.066407,0.6679688 1.066407,1.3710938 v 0.2578125 c -1.136719,0 -2.824219,0.3632812 -2.824219,1.66406245 v 0.0820313 c 0.08203,0.76171875 1.042969,0.97265625 1.617187,0.97265625 0.503907,0 1.148438,-0.33984375 1.277344,-0.85546875 h 0.01172 c 0.05859,0.43359375 0.328125,0.796875 0.773437,0.796875 0.410157,0 0.773438,-0.328125 0.820313,-0.7734375 V -1.45375 h -0.246094 v 0.50390625 c 0,0.26953125 -0.04687,0.6796875 -0.363281,0.6796875 -0.316406,0 -0.363281,-0.38671875 -0.363281,-0.65625 V -2.5904687 c 0,-0.1289063 0.01172,-0.2460938 0.01172,-0.375 0,-0.9726563 -0.914062,-1.5 -1.734375,-1.5 -0.632812,0 -1.511718,0.3164062 -1.511718,1.1132812 0,0.28125 0.199218,0.46875 0.457031,0.46875 0.28125,0 0.457031,-0.2109375 0.457031,-0.4570312 0,-0.28125 -0.234375,-0.4570313 -0.503906,-0.4570313 z m 2.121094,1.3945313 v 1.0078125 c 0,0.6914062 -0.480469,1.2304687 -1.125,1.2773437 h -0.03516 c -0.46875,0 -0.890625,-0.375 -0.890625,-0.84375 v -0.0585937 c 0.07031,-1.0078125 1.195313,-1.3476563 2.050782,-1.3828125 z M 24.393,-4.2896875 V -3.985 h 0.1875 c 0.503906,0 0.539062,0.1992188 0.855469,0.9609375 l 0.796875,1.9921875 c 0.164062,0.38671875 0.363281,1.13671875 0.597656,1.13671875 0.234375,0 0.421875,-0.7265625 0.574219,-1.08984375 L 28.23675,-3.0475 C 28.494562,-3.6685937 28.7055,-3.985 29.268,-3.985 V -4.2896875 H 27.662531 V -3.985 c 0.222656,0 0.46875,0.1640625 0.46875,0.4101563 0,0.1289062 -0.05859,0.2695312 -0.105469,0.3984375 -0.292968,0.703125 -0.574218,1.40625 -0.867187,2.0976562 -0.02344,0.09375 -0.07031,0.17578125 -0.09375,0.28125 h -0.01172 c -0.07031,-0.234375 -0.175781,-0.4570312 -0.269531,-0.6914062 l -0.820313,-2.0039063 c -0.02344,-0.082031 -0.05859,-0.1640625 -0.05859,-0.2460937 v -0.035156 C 25.951594,-3.9732812 26.256281,-3.985 26.4555,-3.985 v -0.3046875 z m 5.90332,1.9804688 h 2.871094 c 0.105469,0 0.164063,-0.070312 0.164063,-0.1875 0,-1.0546875 -0.65625,-1.96875 -1.769532,-1.96875 -1.21875,0 -2.097656,1.0898437 -2.097656,2.2734375 0,0.9140625 0.503906,1.73437495 1.382813,2.13281245 0.234375,0.09375 0.492187,0.1640625 0.75,0.1640625 h 0.02344 c 0.773438,0 1.40625,-0.43359375 1.675781,-1.20703125 0.01172,-0.023437 0.01172,-0.058594 0.01172,-0.09375 0,-0.070312 -0.03516,-0.1171875 -0.105469,-0.1171875 -0.152343,0 -0.210937,0.328125 -0.269531,0.43359375 -0.257812,0.4453125 -0.726562,0.7265625 -1.253906,0.7265625 -0.363281,0 -0.679688,-0.2109375 -0.949219,-0.48046875 C 30.331477,-1.0904687 30.29632,-1.735 30.29632,-2.3092187 Z m 0.01172,-0.2109375 c 0,-0.7734375 0.410156,-1.7226563 1.230469,-1.7226563 h 0.04687 c 0.972656,0.09375 0.960937,1.125 1.066406,1.7226563 z m 0,0"
       style="fill:#000000;fill-opacity:1;fill-rule:nonzero;stroke:none"
       aria-label="Enclave"
       transform="matrix(1.3333333,0,0,1.3333333,76.976,38.313333)" />
    <path
       id="path14"
       d="m 17.64835,-56.04422 h 99.21385 v 24.7212 H 17.64835 Z"
       style="fill:none;stroke:#000000;stroke-width:0.3985;stroke-linecap:butt;stroke-linejoin:miter;stroke-miterlimit:10;stroke-dasharray:none;stroke-opacity:1"
       transform="matrix(1.3333333,0,0,-1.3333333,9.7146667,5.288)" />
    <g
       id="g14"
       aria-label="contracta&#10;x"
       transform="matrix(1.3333333,0,0,1.3333333,69.458667,59.645333)">
      <path
         id="path15"
         d="m 3.5729922,-3.8560703 c -0.2578125,0.023437 -0.46875,0.1757812 -0.46875,0.4570312 0,0.2695313 0.1875,0.4570313 0.4570312,0.4570313 0.3046875,0 0.4570313,-0.2109375 0.4570313,-0.4921875 v -0.058594 c -0.09375,-0.7265625 -0.9375,-0.9726562 -1.5234375,-0.9726562 -1.2070313,0 -2.16796876,1.0664062 -2.16796876,2.3085937 0,1.125 0.87890626,2.26171879 2.16796876,2.26171879 0.65625,0 1.3007812,-0.36328125 1.5703125,-1.06640625 0.023437,-0.0585937 0.070312,-0.14062504 0.070312,-0.21093754 0,-0.070312 -0.046875,-0.1289062 -0.1171875,-0.1289062 -0.1523438,0 -0.2460938,0.38671874 -0.3164063,0.51562499 -0.234375,0.38671875 -0.6445312,0.62109375 -1.0898437,0.6328125 -1.0664063,0 -1.3945313,-1.06640629 -1.453125,-1.85156249 v -0.1171875 c 0,-0.796875 0.1992187,-1.9921875 1.2890625,-2.0976563 h 0.082031 c 0.3632813,0 0.7617188,0.1171875 1.0429695,0.3632815 z m 3.1962891,-0.609375 c -1.2539063,0.1289062 -2.0625,1.1835937 -2.0625,2.34375 0,1.12499999 0.8789062,2.22656249 2.2148437,2.22656249 1.1953125,0 2.1914063,-0.984375 2.1914063,-2.23828129 0,-1.1835937 -0.890625,-2.34375 -2.2148438,-2.34375 -0.046875,0 -0.09375,0.011719 -0.1289062,0.011719 z m -1.2304688,2.5664062 v -0.4335937 c 0,-0.7617188 0.2460938,-1.9101563 1.3710938,-1.9101563 0.8085937,0 1.265625,0.6796875 1.3476562,1.4296875 0.023437,0.2226563 0.023437,0.4335938 0.023437,0.65625 0,0.6445313 -0.070312,1.45312504 -0.703125,1.81640629 -0.1992187,0.12890625 -0.421875,0.1875 -0.65625,0.1875 -0.7265625,0 -1.2304687,-0.5625 -1.3359375,-1.34765629 C 5.56225,-1.6295078 5.56225,-1.7584141 5.5388125,-1.8990391 Z m 4.1835938,-2.390625 v 0.3046875 H 9.87475 c 0.328125,0 0.632813,0.035156 0.632813,0.4921875 v 2.75390629 c 0,0.41015625 -0.28125,0.421875 -0.726563,0.421875 H 9.722406 v 0.3046875 h 2.25 v -0.3046875 h -0.257812 c -0.28125,0 -0.515625,-0.046875 -0.515625,-0.41015625 V -2.5552891 c 0,-0.7148437 0.363281,-1.6289062 1.359375,-1.6289062 0.632812,0 0.691406,0.6914062 0.691406,1.1132812 v 2.37890629 c 0,0.33984375 -0.292969,0.375 -0.597656,0.375 h -0.175781 v 0.3046875 h 2.25 v -0.3046875 h -0.246094 c -0.269531,0 -0.527344,-0.046875 -0.527344,-0.38671875 V -2.8834141 c 0,-0.328125 -0.01172,-0.6679687 -0.175781,-0.9609375 -0.222656,-0.4453125 -0.738281,-0.5625 -1.195313,-0.5625 -0.609375,0 -1.230468,0.421875 -1.429687,1.0195313 l -0.01172,-1.0195313 z m 6.4277347,-1.8515625 c 0,0.6914063 -0.292969,1.9335938 -1.3125,1.9335938 v 0.2226562 h 0.855468 v 2.5664063 c 0,0.328125 0.02344,0.65624999 0.1875,0.94921874 0.210938,0.3984375 0.679688,0.57421875 1.125,0.57421875 0.808594,0 0.972657,-0.92578125 0.972657,-1.54687499 v -0.375 h -0.246094 c 0,0.1523437 0.01172,0.3046875 0.01172,0.4570312 0,0.44531254 -0.105469,1.20703129 -0.691407,1.20703129 -0.5625,0 -0.65625,-0.6796875 -0.65625,-1.13671879 v -2.6953125 h 1.417969 v -0.3046875 h -1.417969 v -1.8515625 z m 2.654297,1.8515625 v 0.3046875 h 0.152343 c 0.328125,0 0.621094,0.035156 0.621094,0.4921875 v 2.75390629 c 0,0.41015625 -0.28125,0.421875 -0.714844,0.421875 h -0.05859 v 0.3046875 H 21.2185 v -0.3046875 c -0.128906,0 -0.257812,0.0117188 -0.386719,0.0117188 -0.316406,0 -0.585937,-0.0585938 -0.585937,-0.421875 V -2.0513828 c 0,-0.84375 0.199219,-2.1328125 1.183594,-2.1328125 0.03516,0 0.05859,0 0.105468,0.011719 v 0.011719 c -0.152343,0.058594 -0.234375,0.2109375 -0.234375,0.375 0,0.234375 0.152344,0.3867187 0.386719,0.4335937 0.28125,0 0.46875,-0.1875 0.46875,-0.4335937 0,-0.3984375 -0.375,-0.6210938 -0.726562,-0.6210938 -0.597657,0 -1.125,0.5273438 -1.21875,1.0664063 l -0.01172,-1.0664063 z m 4.743164,0.4921875 c 0.246093,-0.3046875 0.691406,-0.4453125 1.054687,-0.4453125 0.738281,0 1.066406,0.6679688 1.066406,1.3710938 v 0.2578125 c -1.136718,0 -2.824218,0.3632812 -2.824218,1.66406249 v 0.0820313 c 0.08203,0.76171875 1.042968,0.97265625 1.617187,0.97265625 0.503906,0 1.148438,-0.33984375 1.277344,-0.85546875 h 0.01172 c 0.05859,0.43359375 0.328125,0.796875 0.773437,0.796875 0.410156,0 0.773438,-0.328125 0.820313,-0.7734375 V -1.4537266 h -0.246094 v 0.50390629 c 0,0.26953125 -0.04687,0.6796875 -0.363281,0.6796875 -0.316407,0 -0.363282,-0.38671875 -0.363282,-0.65625 V -2.5904453 c 0,-0.1289063 0.01172,-0.2460938 0.01172,-0.375 0,-0.9726563 -0.914062,-1.5 -1.734375,-1.5 -0.632812,0 -1.511719,0.3164062 -1.511719,1.1132812 0,0.28125 0.199219,0.46875 0.457032,0.46875 0.28125,0 0.457031,-0.2109375 0.457031,-0.4570312 0,-0.28125 -0.234375,-0.4570313 -0.503906,-0.4570313 z m 2.121093,1.3945313 v 1.0078125 c 0,0.69140624 -0.480468,1.23046874 -1.125,1.27734374 h -0.03516 c -0.46875,0 -0.890625,-0.375 -0.890625,-0.84375 v -0.0585937 c 0.07031,-1.0078125 1.195313,-1.3476563 2.050781,-1.3828125 z m 5.320313,-1.453125 c -0.257813,0.023437 -0.46875,0.1757812 -0.46875,0.4570312 0,0.2695313 0.1875,0.4570313 0.457031,0.4570313 0.304688,0 0.457031,-0.2109375 0.457031,-0.4921875 v -0.058594 c -0.09375,-0.7265625 -0.9375,-0.9726562 -1.523437,-0.9726562 -1.207031,0 -2.167969,1.0664062 -2.167969,2.3085937 0,1.125 0.878906,2.26171879 2.167969,2.26171879 0.65625,0 1.300781,-0.36328125 1.570312,-1.06640625 0.02344,-0.0585937 0.07031,-0.14062504 0.07031,-0.21093754 0,-0.070312 -0.04687,-0.1289062 -0.117188,-0.1289062 -0.152343,0 -0.246093,0.38671874 -0.316406,0.51562499 -0.234375,0.38671875 -0.644531,0.62109375 -1.089844,0.6328125 -1.066406,0 -1.394531,-1.06640629 -1.453125,-1.85156249 v -0.1171875 c 0,-0.796875 0.199219,-1.9921875 1.289063,-2.0976563 h 0.08203 c 0.363281,0 0.761719,0.1171875 1.042969,0.3632813 z m 2.34082,-2.2851563 c 0,0.6914063 -0.292969,1.9335938 -1.3125,1.9335938 v 0.2226562 h 0.855469 v 2.5664063 c 0,0.328125 0.02344,0.65624999 0.1875,0.94921874 0.210937,0.3984375 0.679687,0.57421875 1.125,0.57421875 0.808594,0 0.972656,-0.92578125 0.972656,-1.54687499 v -0.375 h -0.246094 c 0,0.1523437 0.01172,0.3046875 0.01172,0.4570312 0,0.44531254 -0.105469,1.20703129 -0.691406,1.20703129 -0.5625,0 -0.65625,-0.6796875 -0.65625,-1.13671879 v -2.6953125 h 1.417969 v -0.3046875 h -1.417969 v -1.8515625 z m 0,0"
         style="fill:#000000;fill-opacity:1;fill-rule:nonzero;stroke:none" />
      <path
         id="path16"
         d="m 42.517328,-0.59825781 c 0.152344,0.43359375 0.363281,0.703125 0.808594,0.703125 0.679687,0 0.902344,-0.87890625 1.007812,-1.38281249 0.01172,-0.035156 0.04687,-0.1054688 0.04687,-0.1523438 0,-0.082031 -0.08203,-0.1054687 -0.152343,-0.1054687 -0.152344,0 -0.175782,0.1054687 -0.1875,0.1875 -0.117188,0.44531249 -0.28125,1.23046874 -0.691407,1.23046874 -0.175781,0 -0.246093,-0.19921875 -0.246093,-0.3515625 v -0.09375 c 0,-0.2109375 0.05859,-0.421875 0.105468,-0.63281254 l 0.597657,-2.4023437 c 0.03516,-0.09375 0.07031,-0.2109375 0.08203,-0.3164063 0,-0.1875 -0.105469,-0.2929687 -0.269531,-0.2929687 -0.234375,0 -0.363282,0.1875 -0.386719,0.3867187 -0.222656,-0.3164062 -0.433594,-0.5976562 -0.84375,-0.5976562 -1.054688,0 -1.757813,1.1953125 -1.910156,1.5234375 -0.210938,0.421875 -0.363282,0.9375 -0.363282,1.4296875 0,0.62109374 0.210938,1.26562499 0.890625,1.52343749 0.105469,0.03515625 0.199219,0.046875 0.292969,0.046875 0.445313,0 0.996094,-0.33984375 1.21875,-0.703125 z m 0.550781,-2.62499999 c -0.01172,0.1054687 -0.04687,0.2109375 -0.08203,0.3164062 l -0.339844,1.3945313 c -0.03516,0.1289062 -0.05859,0.28125 -0.117187,0.4101562 -0.07031,0.16406254 -0.199219,0.32812504 -0.328125,0.46875004 l -0.140625,0.140625 c -0.175781,0.17578125 -0.445313,0.375 -0.714844,0.375 -0.375,0 -0.550781,-0.4453125 -0.550781,-0.92578124 0.01172,-0.375 0.105469,-0.7382813 0.199219,-1.1015625 0.140625,-0.5859375 0.304687,-1.1953125 0.726562,-1.6523438 0.164063,-0.1875 0.398438,-0.375 0.65625,-0.3867187 h 0.02344 c 0.445312,0 0.667968,0.609375 0.667968,0.9140625 z m 0,0"
         style="fill:#000000;fill-opacity:1;fill-rule:nonzero;stroke:none" />
      <path
         id="path17"
         d="m 22.926508,8.9437344 c 0.05859,-0.2578125 0.292969,-1.171875 0.984375,-1.171875 0.04687,0 0.292969,0 0.503906,0.1289062 -0.28125,0.046875 -0.480469,0.3046875 -0.480469,0.5390625 0,0.1640625 0.105469,0.3515625 0.375,0.3515625 0.222657,0 0.539063,-0.1875 0.539063,-0.5859375 0,-0.515625 -0.585938,-0.65625 -0.925781,-0.65625 -0.574219,0 -0.925782,0.5273438 -1.042969,0.7617188 -0.257813,-0.65625 -0.785156,-0.7617188 -1.078125,-0.7617188 -1.042969,0 -1.605469,1.2890625 -1.605469,1.5351563 0,0.1054687 0.105469,0.1054687 0.117188,0.1054687 0.08203,0 0.117187,-0.023437 0.128906,-0.1171875 0.339844,-1.0546875 0.996094,-1.3007812 1.335937,-1.3007812 0.1875,0 0.539063,0.09375 0.539063,0.6679687 0,0.3046875 -0.164063,0.9726563 -0.539063,2.3671879 -0.152343,0.621093 -0.503906,1.042968 -0.949218,1.042968 -0.05859,0 -0.28125,0 -0.492188,-0.128906 0.246094,-0.05859 0.46875,-0.269531 0.46875,-0.539062 0,-0.269532 -0.222656,-0.351563 -0.375,-0.351563 -0.292969,0 -0.539062,0.257813 -0.539062,0.574219 0,0.457031 0.492187,0.65625 0.9375,0.65625 0.65625,0 1.007812,-0.691406 1.042968,-0.75 0.117188,0.363281 0.480469,0.75 1.078125,0.75 1.019532,0 1.59375,-1.277344 1.59375,-1.535156 0,-0.09375 -0.09375,-0.09375 -0.128906,-0.09375 -0.08203,0 -0.105469,0.03516 -0.128906,0.105468 -0.328125,1.066407 -0.996094,1.3125 -1.324219,1.3125 -0.386719,0 -0.539062,-0.328125 -0.539062,-0.65625 0,-0.222656 0.05859,-0.445312 0.164062,-0.878906 z m 0,0"
         style="fill:#000000;fill-opacity:1;fill-rule:nonzero;stroke:none" />
    </g>
    <path
       id="path18"
       d="m 17.64835,-85.45563 h 99.21385 v 26.28659 H 17.64835 Z"
       style="fill:none;stroke:#000000;stroke-width:0.3985;stroke-linecap:butt;stroke-linejoin:miter;stroke-miterlimit:10;stroke-dasharray:none;stroke-opacity:1"
       transform="matrix(1.3333333,0,0,-1.3333333,9.7146667,5.288)" />
    <g
       id="g18"
       aria-label="contracta’&#10;x+1"
       transform="matrix(1.3333333,0,0,1.3333333,67.106667,97.753333)">
      <path
         id="path19"
         d="m 3.5733203,-3.8550391 c -0.2578125,0.023437 -0.46875,0.1757813 -0.46875,0.4570313 0,0.2695312 0.1875,0.4570312 0.4570313,0.4570312 0.3046875,0 0.4570312,-0.2109375 0.4570312,-0.4921875 v -0.058594 c -0.09375,-0.7265625 -0.9375,-0.9726563 -1.5234375,-0.9726563 -1.2070312,0 -2.16796874,1.0664063 -2.16796874,2.3085938 0,1.125 0.87890624,2.26171874 2.16796874,2.26171874 0.65625,0 1.3007813,-0.36328125 1.5703125,-1.06640625 0.023437,-0.0585938 0.070312,-0.14062499 0.070312,-0.21093749 0,-0.070312 -0.046875,-0.1289063 -0.1171875,-0.1289063 -0.1523437,0 -0.2460937,0.38671879 -0.3164062,0.51562504 -0.234375,0.38671875 -0.6445313,0.62109375 -1.0898438,0.6328125 -1.0664062,0 -1.3945312,-1.06640624 -1.453125,-1.85156254 v -0.1171875 c 0,-0.796875 0.1992188,-1.9921875 1.2890625,-2.0976562 h 0.082031 c 0.3632812,0 0.7617187,0.1171875 1.0429695,0.3632815 z m 3.1962891,-0.609375 c -1.2539063,0.1289063 -2.0625,1.1835938 -2.0625,2.34375 0,1.12500004 0.8789062,2.22656254 2.2148437,2.22656254 1.1953125,0 2.1914063,-0.984375 2.1914063,-2.23828124 0,-1.1835938 -0.890625,-2.34375 -2.2148438,-2.34375 -0.046875,0 -0.09375,0.011719 -0.1289062,0.011719 z m -1.2304688,2.5664063 v -0.4335938 c 0,-0.7617187 0.2460938,-1.9101562 1.3710938,-1.9101562 0.8085937,0 1.265625,0.6796875 1.3476562,1.4296875 0.023437,0.2226562 0.023437,0.4335937 0.023437,0.65625 0,0.6445312 -0.070312,1.45312499 -0.703125,1.81640624 -0.1992187,0.12890625 -0.421875,0.1875 -0.65625,0.1875 -0.7265625,0 -1.2304687,-0.5625 -1.3359375,-1.34765624 -0.023437,-0.1289063 -0.023437,-0.2578125 -0.046875,-0.3984375 z m 4.1835938,-2.390625 v 0.3046875 h 0.1523437 c 0.3281249,0 0.6328129,0.035156 0.6328129,0.4921875 v 2.75390624 c 0,0.41015625 -0.28125,0.421875 -0.7265629,0.421875 h -0.058594 v 0.3046875 h 2.2499999 v -0.3046875 h -0.257812 c -0.28125,0 -0.515625,-0.046875 -0.515625,-0.41015625 V -2.5542578 c 0,-0.7148438 0.363281,-1.6289063 1.359375,-1.6289063 0.632812,0 0.691406,0.6914063 0.691406,1.1132813 v 2.37890624 c 0,0.33984375 -0.292969,0.375 -0.597656,0.375 h -0.175781 v 0.3046875 h 2.25 v -0.3046875 h -0.246094 c -0.269531,0 -0.527344,-0.046875 -0.527344,-0.38671875 V -2.8823828 c 0,-0.328125 -0.01172,-0.6679688 -0.175781,-0.9609375 -0.222656,-0.4453125 -0.738281,-0.5625 -1.195313,-0.5625 -0.609375,0 -1.230468,0.421875 -1.429687,1.0195312 l -0.01172,-1.0195312 z m 6.4277346,-1.8515625 c 0,0.6914062 -0.292969,1.9335937 -1.3125,1.9335937 v 0.2226563 h 0.855469 v 2.5664062 c 0,0.328125 0.02344,0.65625004 0.1875,0.94921879 0.210937,0.3984375 0.679687,0.57421875 1.125,0.57421875 0.808593,0 0.972656,-0.92578125 0.972656,-1.54687504 v -0.375 H 17.7325 c 0,0.1523438 0.01172,0.3046875 0.01172,0.4570313 0,0.44531249 -0.105469,1.20703124 -0.691406,1.20703124 -0.5625,0 -0.65625,-0.6796875 -0.65625,-1.13671874 v -2.6953125 h 1.417968 v -0.3046875 h -1.417968 v -1.8515625 z m 2.654297,1.8515625 v 0.3046875 h 0.152343 c 0.328125,0 0.621094,0.035156 0.621094,0.4921875 v 2.75390624 c 0,0.41015625 -0.28125,0.421875 -0.714844,0.421875 h -0.05859 v 0.3046875 h 2.414062 v -0.3046875 c -0.128906,0 -0.257812,0.0117188 -0.386719,0.0117188 -0.316406,0 -0.585937,-0.0585938 -0.585937,-0.421875 V -2.0503516 c 0,-0.84375 0.199219,-2.1328125 1.183594,-2.1328125 0.03516,0 0.05859,0 0.105468,0.011719 v 0.011719 c -0.152343,0.058594 -0.234375,0.2109375 -0.234375,0.375 0,0.234375 0.152344,0.3867188 0.386719,0.4335938 0.28125,0 0.46875,-0.1875 0.46875,-0.4335938 0,-0.3984375 -0.375,-0.6210937 -0.726562,-0.6210937 -0.597657,0 -1.125,0.5273437 -1.21875,1.0664062 l -0.01172,-1.0664062 z m 4.743164,0.4921875 c 0.246093,-0.3046875 0.691406,-0.4453125 1.054687,-0.4453125 0.738281,0 1.066406,0.6679687 1.066406,1.3710937 v 0.2578125 c -1.136718,0 -2.824218,0.3632813 -2.824218,1.66406254 v 0.0820313 c 0.08203,0.76171875 1.042968,0.97265625 1.617187,0.97265625 0.503906,0 1.148438,-0.33984375 1.277344,-0.85546875 h 0.01172 c 0.05859,0.43359375 0.328125,0.796875 0.773437,0.796875 0.410156,0 0.773438,-0.328125 0.820313,-0.7734375 V -1.4526953 h -0.246094 v 0.50390624 c 0,0.26953125 -0.04687,0.6796875 -0.363281,0.6796875 -0.316407,0 -0.363282,-0.38671875 -0.363282,-0.65625 V -2.5894141 c 0,-0.1289062 0.01172,-0.2460937 0.01172,-0.375 0,-0.9726562 -0.914062,-1.5 -1.734375,-1.5 -0.632812,0 -1.511719,0.3164063 -1.511719,1.1132813 0,0.28125 0.199219,0.46875 0.457032,0.46875 0.28125,0 0.457031,-0.2109375 0.457031,-0.4570313 0,-0.28125 -0.234375,-0.4570312 -0.503906,-0.4570312 z m 2.121093,1.3945312 v 1.0078125 c 0,0.69140629 -0.480468,1.23046879 -1.125,1.27734379 h -0.03516 c -0.46875,0 -0.890625,-0.375 -0.890625,-0.84375 v -0.0585938 c 0.07031,-1.0078125 1.195313,-1.3476562 2.050781,-1.3828125 z m 5.320313,-1.453125 c -0.257813,0.023437 -0.46875,0.1757813 -0.46875,0.4570313 0,0.2695312 0.1875,0.4570312 0.457031,0.4570312 0.304688,0 0.457031,-0.2109375 0.457031,-0.4921875 v -0.058594 c -0.09375,-0.7265625 -0.9375,-0.9726563 -1.523437,-0.9726563 -1.207031,0 -2.167969,1.0664063 -2.167969,2.3085938 0,1.125 0.878906,2.26171874 2.167969,2.26171874 0.65625,0 1.300781,-0.36328125 1.570312,-1.06640625 0.02344,-0.0585938 0.07031,-0.14062499 0.07031,-0.21093749 0,-0.070312 -0.04687,-0.1289063 -0.117188,-0.1289063 -0.152343,0 -0.246093,0.38671879 -0.316406,0.51562504 -0.234375,0.38671875 -0.644531,0.62109375 -1.089844,0.6328125 -1.066406,0 -1.394531,-1.06640624 -1.453125,-1.85156254 v -0.1171875 c 0,-0.796875 0.199219,-1.9921875 1.289063,-2.0976562 h 0.08203 c 0.363281,0 0.761719,0.1171875 1.042969,0.3632812 z m 2.34082,-2.2851562 c 0,0.6914062 -0.292968,1.9335937 -1.3125,1.9335937 v 0.2226563 h 0.855469 v 2.5664062 c 0,0.328125 0.02344,0.65625004 0.1875,0.94921879 0.210938,0.3984375 0.679688,0.57421875 1.125,0.57421875 0.808594,0 0.972656,-0.92578125 0.972656,-1.54687504 v -0.375 h -0.246093 c 0,0.1523438 0.01172,0.3046875 0.01172,0.4570313 0,0.44531249 -0.105468,1.20703124 -0.691406,1.20703124 -0.5625,0 -0.65625,-0.6796875 -0.65625,-1.13671874 v -2.6953125 h 1.417969 V -4.2886328 H 33.57625 v -1.8515625 z m 0,0"
         style="fill:#000000;fill-opacity:1;fill-rule:nonzero;stroke:none" />
      <path
         id="path20"
         d="m 42.520586,-0.59722656 c 0.152344,0.43359375 0.363281,0.703125 0.808594,0.703125 0.679687,0 0.902343,-0.87890625 1.007812,-1.38281254 0.01172,-0.035156 0.04687,-0.1054687 0.04687,-0.1523437 0,-0.082031 -0.08203,-0.1054688 -0.152344,-0.1054688 -0.152343,0 -0.175781,0.1054688 -0.1875,0.1875 -0.117187,0.44531254 -0.28125,1.23046879 -0.691406,1.23046879 -0.175781,0 -0.246094,-0.19921875 -0.246094,-0.3515625 v -0.09375 c 0,-0.2109375 0.05859,-0.421875 0.105469,-0.63281249 l 0.597656,-2.4023438 c 0.03516,-0.09375 0.07031,-0.2109375 0.08203,-0.3164062 0,-0.1875 -0.105469,-0.2929688 -0.269532,-0.2929688 -0.234375,0 -0.363281,0.1875 -0.386718,0.3867188 -0.222657,-0.3164063 -0.433594,-0.5976563 -0.84375,-0.5976563 -1.054688,0 -1.757813,1.1953125 -1.910157,1.5234375 -0.210937,0.421875 -0.363281,0.9375 -0.363281,1.4296875 0,0.62109379 0.210938,1.26562504 0.890625,1.52343754 0.105469,0.03515625 0.199219,0.046875 0.292969,0.046875 0.445312,0 0.996094,-0.33984375 1.21875,-0.703125 z m 0.550781,-2.62500004 c -0.01172,0.1054688 -0.04687,0.2109375 -0.08203,0.3164063 l -0.339844,1.3945312 c -0.03516,0.1289063 -0.05859,0.28125 -0.117187,0.4101563 -0.07031,0.16406249 -0.199219,0.32812499 -0.328125,0.46874999 l -0.140625,0.140625 c -0.175782,0.17578125 -0.445313,0.375 -0.714844,0.375 -0.375,0 -0.550781,-0.4453125 -0.550781,-0.92578129 0.01172,-0.375 0.105468,-0.7382812 0.199218,-1.1015625 0.140625,-0.5859375 0.304688,-1.1953125 0.726563,-1.6523437 0.164062,-0.1875 0.398437,-0.375 0.65625,-0.3867188 h 0.02344 c 0.445313,0 0.667969,0.609375 0.667969,0.9140625 z m 4.538086,-2.8359375 c -0.210937,0.8085938 -0.539062,1.3242188 -1.21875,1.8984375 -0.03516,0.035156 -0.07031,0.070312 -0.07031,0.1171875 0,0.070312 0.05859,0.09375 0.105468,0.09375 0.140625,0 0.445313,-0.3398437 0.609375,-0.515625 0.433594,-0.4921875 0.808594,-1.1835937 0.808594,-1.8398437 0,-0.3515625 -0.164062,-0.6210938 -0.492187,-0.6210938 -0.328125,0 -0.632813,0.3046875 -0.632813,0.6445313 0,0.3046875 0.210938,0.4101562 0.410156,0.4101562 0.175782,0 0.351563,-0.070312 0.480469,-0.1875 z m 0,0"
         style="fill:#000000;fill-opacity:1;fill-rule:nonzero;stroke:none" />
      <path
         id="path21"
         d="m 16.112383,8.9418359 c 0.05859,-0.2578125 0.292969,-1.171875 0.984375,-1.171875 0.04687,0 0.292969,0 0.503906,0.1289063 -0.28125,0.046875 -0.480469,0.3046875 -0.480469,0.5390625 0,0.1640625 0.105469,0.3515625 0.375,0.3515625 0.222657,0 0.539063,-0.1875 0.539063,-0.5859375 0,-0.515625 -0.585938,-0.65625 -0.925781,-0.65625 -0.574219,0 -0.925782,0.5273437 -1.042969,0.7617187 -0.257813,-0.65625 -0.785156,-0.7617187 -1.078125,-0.7617187 -1.042969,0 -1.605469,1.2890625 -1.605469,1.5351562 0,0.1054688 0.105469,0.1054688 0.117188,0.1054688 0.08203,0 0.117187,-0.023437 0.128906,-0.1171875 0.339844,-1.0546875 0.996094,-1.3007813 1.335937,-1.3007813 0.1875,0 0.539063,0.09375 0.539063,0.6679688 0,0.3046875 -0.164063,0.9726562 -0.539063,2.3671873 -0.152343,0.621094 -0.503906,1.042969 -0.949218,1.042969 -0.05859,0 -0.28125,0 -0.492188,-0.128906 0.246094,-0.05859 0.46875,-0.269532 0.46875,-0.539063 0,-0.269531 -0.222656,-0.351562 -0.375,-0.351562 -0.292969,0 -0.539062,0.257812 -0.539062,0.574218 0,0.457032 0.492187,0.65625 0.9375,0.65625 0.65625,0 1.007812,-0.691406 1.042968,-0.75 0.117188,0.363282 0.480469,0.75 1.078125,0.75 1.019532,0 1.59375,-1.277343 1.59375,-1.535156 0,-0.09375 -0.09375,-0.09375 -0.128906,-0.09375 -0.08203,0 -0.105469,0.03516 -0.128906,0.105469 -0.328125,1.066406 -0.996094,1.3125 -1.324219,1.3125 -0.386719,0 -0.539062,-0.328125 -0.539062,-0.65625 0,-0.222656 0.05859,-0.445313 0.164062,-0.878906 z m 0,0"
         style="fill:#000000;fill-opacity:1;fill-rule:nonzero;stroke:none" />
      <path
         id="path22"
         d="m 24.769609,9.6566797 h 2.777344 c 0.140625,0 0.328125,0 0.328125,-0.1992188 0,-0.1992187 -0.1875,-0.1992187 -0.328125,-0.1992187 H 24.769609 V 6.4691797 c 0,-0.1289063 0,-0.328125 -0.199218,-0.328125 -0.199219,0 -0.199219,0.1992187 -0.199219,0.328125 v 2.7890625 h -2.789063 c -0.140625,0 -0.328125,0 -0.328125,0.1992187 0,0.1992188 0.1875,0.1992188 0.328125,0.1992188 h 2.789063 v 2.8007813 c 0,0.128906 0,0.328125 0.199219,0.328125 0.199218,0 0.199218,-0.199219 0.199218,-0.328125 z m 8.8125,-4.078125 c 0,-0.234375 0,-0.2578125 -0.234375,-0.2578125 -0.609375,0.6328125 -1.488281,0.6328125 -1.804687,0.6328125 v 0.3164062 c 0.199219,0 0.785156,0 1.300781,-0.2578125 v 5.1562496 c 0,0.351563 -0.03516,0.480469 -0.925781,0.480469 h -0.316406 v 0.304688 c 0.351562,-0.03516 1.207031,-0.03516 1.605468,-0.03516 0.398438,0 1.265625,0 1.617188,0.03516 v -0.304688 h -0.316406 c -0.902344,0 -0.925782,-0.117187 -0.925782,-0.480469 z m 0,0"
         style="fill:#000000;fill-opacity:1;fill-rule:nonzero;stroke:none" />
    </g>
    <path
       id="path23"
       d="M 164.27608,-93.05923 H 186.9536 V 3.31975 h -22.67752 z"
       style="fill:none;stroke:#000000;stroke-width:0.3985;stroke-linecap:butt;stroke-linejoin:miter;stroke-miterlimit:10;stroke-dasharray:none;stroke-opacity:1"
       transform="matrix(1.3333333,0,0,-1.3333333,9.7146667,5.288)" />
    <path
       id="path24"
       d="M 164.27608,-11.622 H 186.9536 V 3.31974 h -22.67752 z"
       style="fill:none;stroke:#000000;stroke-width:0.3985;stroke-linecap:butt;stroke-linejoin:miter;stroke-miterlimit:10;stroke-dasharray:none;stroke-opacity:1"
       transform="matrix(1.3333333,0,0,-1.3333333,9.7146667,5.288)" />
    <g
       id="g24"
       aria-label="P&#10;M"
       transform="matrix(1.3333333,0,0,1.3333333,233.70533,14.365333)">
      <path
         id="path25"
         d="m 3.0247109,-3.1509531 h 1.6875 c 1.4179688,0 2.8007813,-1.03125 2.8007813,-2.1445313 0,-0.7734375 -0.65625,-1.5117187 -1.96875,-1.5117187 H 2.3215859 c -0.1875,0 -0.2929687,0 -0.2929687,0.1992187 0,0.1171875 0.082031,0.1171875 0.28125,0.1171875 0.1289062,0 0.3164062,0.011719 0.4335937,0.011719 0.1523438,0.023437 0.2109375,0.058594 0.2109375,0.1640625 0,0.035156 0,0.070312 -0.035156,0.1875 l -1.3359375,5.35546873 c -0.09375,0.38671875 -0.1171875,0.46875 -0.90234376,0.46875 -0.17578125,0 -0.28125,0 -0.28125,0.1875 0,0.1171875 0.1171875,0.1171875 0.15234375,0.1171875 0.28125,0 0.98437501,-0.03515625 1.26562501,-0.03515625 0.2109375,0 0.421875,0.01171875 0.6328125,0.01171875 0.2226562,0 0.4453125,0.0234375 0.6445312,0.0234375 0.070312,0 0.1992188,0 0.1992188,-0.19921875 0,-0.10546875 -0.082031,-0.10546875 -0.2695313,-0.10546875 -0.375,0 -0.65625,0 -0.65625,-0.1875 0,-0.0585938 0.023437,-0.10546875 0.035156,-0.1640625 z m 0.7148438,-2.9648438 c 0.082031,-0.3515625 0.1054687,-0.375 0.5390625,-0.375 h 0.9492187 c 0.8320313,0 1.359375,0.2695313 1.359375,0.9492188 0,0.3984375 -0.1992187,1.2539062 -0.5859375,1.6054687 -0.5039062,0.4453125 -1.1015625,0.5273438 -1.5351562,0.5273438 h -1.40625 z m 0,0"
         style="fill:#000000;fill-opacity:1;fill-rule:nonzero;stroke:none" />
      <path
         id="path26"
         d="m 13.510063,-2.7027109 c 0.07031,-0.2578125 0.08203,-0.3164063 0.597656,-0.3164063 0.152344,0 0.234375,0 0.234375,-0.140625 0,-0.1054687 -0.08203,-0.1054687 -0.210938,-0.1054687 h -0.9375 c -0.210937,0 -0.210937,0 -0.304687,0.140625 L 10.193656,0.84807031 9.50225,-3.0777109 c -0.035156,-0.1875 -0.035156,-0.1875 -0.234375,-0.1875 H 8.2600625 c -0.1289062,0 -0.2226562,0 -0.2226562,0.1523437 0,0.09375 0.082031,0.09375 0.234375,0.09375 0.1171875,0 0.140625,0 0.2695312,0.011719 0.140625,0.011719 0.1523438,0.035156 0.1523438,0.1054687 0,0 0,0.046875 -0.035156,0.1523438 L 7.7795938,0.74260156 C 7.721,0.98869531 7.6155313,1.2230703 7.06475,1.2465078 c -0.058594,0 -0.1523437,0 -0.1523437,0.1523438 0,0 0.011719,0.09375 0.1054687,0.09375 0.2109375,0 0.5039063,-0.023437 0.7265625,-0.023437 0.1640625,0 0.5742188,0.023437 0.7382813,0.023437 0.035156,0 0.140625,0 0.140625,-0.1523438 0,-0.09375 -0.09375,-0.09375 -0.1523438,-0.09375 C 8.0256875,1.2230703 8.0256875,1.0472891 8.0256875,0.95353906 c 0,-0.0351563 0,-0.0703125 0.023437,-0.17578125 L 8.9749063,-2.9370859 h 0.011719 l 0.7382813,4.2421875 c 0.023437,0.1289062 0.035156,0.1875 0.140625,0.1875 0.1054687,0 0.1523434,-0.082031 0.2109374,-0.1523438 l 2.917969,-4.3476562 0.01172,0.011719 -0.984375,3.94921876 c -0.05859,0.23437504 -0.07031,0.29296874 -0.609375,0.29296874 -0.128906,0 -0.210937,0 -0.210937,0.1523438 0,0 0,0.09375 0.105469,0.09375 0.140625,0 0.292968,-0.023437 0.433593,-0.023437 0.140625,0 0.304688,0 0.445313,0 0.199219,0 0.691406,0.023437 0.878906,0.023437 0.04687,0 0.152344,0 0.152344,-0.1523438 0,-0.09375 -0.08203,-0.09375 -0.222656,-0.09375 -0.01172,0 -0.140625,0 -0.269532,-0.023437 -0.152343,-0.011719 -0.152343,-0.035156 -0.152343,-0.1054687 0,-0.035156 0.01172,-0.1054688 0.02344,-0.15234379 z m 0,0"
         style="fill:#000000;fill-opacity:1;fill-rule:nonzero;stroke:none" />
    </g>
    <path
       id="path27"
       d="m 264.50891,-93.05923 h 51.02434 V 3.31975 h -51.02434 z"
       style="fill:none;stroke:#000000;stroke-width:0.3985;stroke-linecap:butt;stroke-linejoin:miter;stroke-miterlimit:10;stroke-dasharray:none;stroke-opacity:1"
       transform="matrix(1.3333333,0,0,-1.3333333,9.7146667,5.288)" />
    <path
       id="path28"
       d="m 264.50891,-10.12761 h 51.02434 V 3.31975 h -51.02434 z"
       style="fill:none;stroke:#000000;stroke-width:0.3985;stroke-linecap:butt;stroke-linejoin:miter;stroke-miterlimit:10;stroke-dasharray:none;stroke-opacity:1"
       transform="matrix(1.3333333,0,0,-1.3333333,9.7146667,5.288)" />
    <path
       id="path29"
       d="m 7.5710078,-6.9243906 c 0,-0.023437 -0.023437,-0.09375 -0.1054687,-0.09375 -0.035156,0 -0.046875,0.011719 -0.1523438,0.1171875 l -0.703125,0.7617187 c -0.082031,-0.140625 -0.5390625,-0.8789062 -1.6523437,-0.8789062 -2.2148438,0 -4.45312504,2.203125 -4.45312504,4.5117187 0,1.64062503 1.17187504,2.73046878 2.69531254,2.73046878 0.8671875,0 1.6171875,-0.3984375 2.1445312,-0.85546875 0.9375,-0.82031253 1.1015625,-1.72265623 1.1015625,-1.75781253 0,-0.1054687 -0.1054687,-0.1054687 -0.1171875,-0.1054687 -0.058594,0 -0.1171875,0.023437 -0.1289062,0.1054687 -0.09375,0.2929688 -0.3164063,0.9960938 -1.0078125,1.57031253 -0.6914063,0.5625 -1.3125,0.7265625 -1.8398438,0.7265625 -0.890625,0 -1.9453125,-0.515625 -1.9453125,-2.06250003 0,-0.5742187 0.2109375,-2.1914062 1.2070313,-3.3515625 0.609375,-0.703125 1.5351562,-1.2070312 2.4257812,-1.2070312 1.0195313,0 1.6054688,0.7734375 1.6054688,1.921875 0,0.3984375 -0.035156,0.4101562 -0.035156,0.5039062 0,0.1054688 0.1171875,0.1054688 0.1523438,0.1054688 0.1289062,0 0.1289062,-0.023437 0.1757812,-0.1992188 z m 0,0"
       style="fill:#000000;fill-opacity:1;fill-rule:nonzero;stroke:none"
       aria-label="C"
       transform="matrix(1.3333333,0,0,1.3333333,391.18267,14.365333)" />
    <path
       id="path30"
       d="m 268.76099,-88.64363 h 42.5202 v 73.70189 h -42.5202 z"
       style="fill:none;stroke:#000000;stroke-width:0.3985;stroke-linecap:butt;stroke-linejoin:miter;stroke-miterlimit:10;stroke-dasharray:none;stroke-opacity:1"
       transform="matrix(1.3333333,0,0,-1.3333333,9.7146667,5.288)" />
    <path
       id="path31"
       d="m 1.7591719,-4.4660703 c -0.375,0.046875 -0.76171878,0.1171875 -1.05468753,0.3632812 -0.234375,0.2109375 -0.375,0.5507813 -0.375,0.8671875 0,1.6992188 2.76562503,0.7382813 2.76562503,2.2265625 0,0.60937504 -0.5390625,0.89062504 -1.0898438,0.89062504 -0.7617187,0 -1.26562498,-0.5390625 -1.40624998,-1.39453124 -0.0234375,-0.09375 -0.0351563,-0.1875 -0.15234375,-0.1875 -0.0820313,0 -0.1171875,0.070312 -0.1171875,0.140625 v 1.57031249 c 0.0117188,0.046875 0.0351563,0.08203125 0.09375,0.09375 h 0.0117188 c 0.1640625,0 0.328125,-0.375 0.4453125,-0.41015625 h 0.0117188 c 0.0703125,0 0.33984373,0.2578125 0.55078123,0.328125 0.1757813,0.05859375 0.3515625,0.08203125 0.5273438,0.08203125 0.8320312,0 1.6171875,-0.4453125 1.6171875,-1.35937499 0,-0.65625 -0.4804688,-1.1953125 -1.1367188,-1.3710938 -0.6210937,-0.1640625 -1.62890623,-0.1640625 -1.62890623,-0.890625 0,-0.609375 0.66796873,-0.7617187 1.10156253,-0.7617187 0.4921875,0 1.171875,0.2695312 1.171875,1.125 0,0.09375 0,0.1757812 0.1171875,0.1757812 0.09375,0 0.140625,-0.082031 0.140625,-0.1757812 0,-0.058594 -0.011719,-0.1054688 -0.011719,-0.140625 v -1.03125 c 0,-0.058594 -0.035156,-0.140625 -0.1171875,-0.140625 -0.1523437,0 -0.2578125,0.2460937 -0.3632812,0.2460937 h -0.011719 c -0.082031,0 -0.234375,-0.1289062 -0.3515625,-0.1640625 -0.1875,-0.058594 -0.3867187,-0.09375 -0.5742187,-0.09375 -0.058594,0 -0.1054688,0.011719 -0.1640622,0.011719 z m 3.28125,2.15625 h 2.8710937 c 0.1054688,0 0.1640625,-0.070312 0.1640625,-0.1875 0,-1.0546875 -0.65625,-1.96875 -1.7695312,-1.96875 -1.21875,0 -2.0976563,1.0898437 -2.0976563,2.2734375 0,0.9140625 0.5039063,1.73437499 1.3828125,2.13281249 0.234375,0.09375 0.4921875,0.1640625 0.75,0.1640625 h 0.023437 c 0.7734375,0 1.40625,-0.43359375 1.6757813,-1.20703129 0.011719,-0.023437 0.011719,-0.058594 0.011719,-0.09375 0,-0.070312 -0.035156,-0.1171875 -0.1054687,-0.1171875 -0.1523438,0 -0.2109375,0.32812504 -0.2695313,0.43359379 -0.2578125,0.4453125 -0.7265625,0.7265625 -1.2539062,0.7265625 -0.3632813,0 -0.6796875,-0.2109375 -0.9492188,-0.48046875 C 5.0755781,-1.0910703 5.0404219,-1.7356016 5.0404219,-2.3098203 Z m 0.011719,-0.2109375 c 0,-0.7734375 0.4101563,-1.7226563 1.2304688,-1.7226563 h 0.046875 c 0.9726562,0.09375 0.9609375,1.125 1.0664062,1.7226563 z m 6.8759761,-1.3359375 c -0.257812,0.023437 -0.46875,0.1757812 -0.46875,0.4570312 0,0.2695313 0.1875,0.4570313 0.457031,0.4570313 0.304688,0 0.457032,-0.2109375 0.457032,-0.4921875 v -0.058594 c -0.09375,-0.7265625 -0.9375,-0.9726562 -1.523438,-0.9726562 -1.2070308,0 -2.1679683,1.0664062 -2.1679683,2.3085937 0,1.125 0.8789063,2.26171879 2.1679683,2.26171879 0.65625,0 1.300781,-0.36328125 1.570313,-1.06640625 0.02344,-0.0585937 0.07031,-0.14062504 0.07031,-0.21093754 0,-0.070312 -0.04687,-0.1289062 -0.117187,-0.1289062 -0.152344,0 -0.246094,0.38671874 -0.316407,0.51562499 -0.234375,0.38671875 -0.644531,0.62109375 -1.089843,0.6328125 -1.0664063,0 -1.3945313,-1.06640629 -1.453125,-1.85156249 v -0.1171875 c 0,-0.796875 0.1992187,-1.9921875 1.289062,-2.0976563 h 0.08203 c 0.363282,0 0.761719,0.1171875 1.042969,0.3632813 z m 1.12207,-0.4335938 v 0.3046875 h 0.152344 c 0.328125,0 0.621094,0.035156 0.621094,0.4921875 v 2.75390629 c 0,0.41015625 -0.28125,0.421875 -0.714844,0.421875 h -0.05859 v 0.3046875 h 2.414063 v -0.3046875 c -0.128906,0 -0.257813,0.0117188 -0.386719,0.0117188 -0.316406,0 -0.585937,-0.0585938 -0.585937,-0.421875 V -2.0520078 c 0,-0.84375 0.199218,-2.1328125 1.183593,-2.1328125 0.03516,0 0.05859,0 0.105469,0.011719 v 0.011719 c -0.152344,0.058594 -0.234375,0.2109375 -0.234375,0.375 0,0.234375 0.152344,0.3867187 0.386719,0.4335937 0.28125,0 0.46875,-0.1875 0.46875,-0.4335937 0,-0.3984375 -0.375,-0.6210938 -0.726563,-0.6210938 -0.597656,0 -1.125,0.5273438 -1.21875,1.0664063 l -0.01172,-1.0664063 z m 4.746094,1.9804688 h 2.871094 c 0.105469,0 0.164062,-0.070312 0.164062,-0.1875 0,-1.0546875 -0.65625,-1.96875 -1.769531,-1.96875 -1.21875,0 -2.097656,1.0898437 -2.097656,2.2734375 0,0.9140625 0.503906,1.73437499 1.382812,2.13281249 0.234375,0.09375 0.492188,0.1640625 0.75,0.1640625 h 0.02344 c 0.773437,0 1.40625,-0.43359375 1.675781,-1.20703129 0.01172,-0.023437 0.01172,-0.058594 0.01172,-0.09375 0,-0.070312 -0.03516,-0.1171875 -0.105469,-0.1171875 -0.152344,0 -0.210937,0.32812504 -0.269531,0.43359379 -0.257813,0.4453125 -0.726563,0.7265625 -1.253906,0.7265625 -0.363282,0 -0.679688,-0.2109375 -0.949219,-0.48046875 C 17.831437,-1.0910703 17.796281,-1.7356016 17.796281,-2.3098203 Z M 17.808,-2.5207578 c 0,-0.7734375 0.410156,-1.7226563 1.230469,-1.7226563 h 0.04687 c 0.972656,0.09375 0.960937,1.125 1.066406,1.7226563 z m 4.790039,-3.6210938 c 0,0.6914063 -0.292969,1.9335938 -1.3125,1.9335938 v 0.2226562 h 0.855469 v 2.5664063 c 0,0.328125 0.02344,0.65624999 0.1875,0.94921874 0.210937,0.3984375 0.679687,0.57421875 1.125,0.57421875 0.808594,0 0.972656,-0.92578125 0.972656,-1.54687499 v -0.375 H 24.18007 c 0,0.1523437 0.01172,0.3046875 0.01172,0.4570312 0,0.44531254 -0.105469,1.20703129 -0.691406,1.20703129 -0.5625,0 -0.65625,-0.6796875 -0.65625,-1.13671879 v -2.6953125 h 1.417969 v -0.3046875 h -1.417969 v -1.8515625 z m 3.685547,5.0859375 c -0.246094,0.023437 -0.445313,0.25781254 -0.445313,0.50390629 0,0.24609375 0.199219,0.5390625 0.503907,0.5390625 0.269531,0 0.550781,-0.2109375 0.550781,-0.515625 0,-0.2578125 -0.199219,-0.53906249 -0.515625,-0.53906249 -0.03516,0 -0.05859,0.011719 -0.09375,0.011719 z m 2.039062,-3.234375 v 0.3046875 h 0.1875 c 0.339844,0 0.667969,0.035156 0.667969,0.4921875 v 3.29296879 c 0,0.17578125 0,0.36328125 0,0.5390625 0,0.5625 -0.05859,1.47656251 -0.726562,1.47656251 -0.152344,0 -0.410157,-0.035156 -0.539063,-0.140625 0.234375,-0.035156 0.351563,-0.2460938 0.351563,-0.4453125 0,-0.29296876 -0.210938,-0.45703126 -0.457032,-0.45703126 h -0.03516 c -0.234375,0 -0.421875,0.22265625 -0.421875,0.45703126 0,0.5625 0.621094,0.796875 1.089844,0.796875 0.761719,0 1.40625,-0.609375 1.40625,-1.53515626 V -4.4074766 Z m 0.914063,-2.3789062 c -0.257813,0.035156 -0.457031,0.2578125 -0.457031,0.5273437 0,0.28125 0.257812,0.5273438 0.527343,0.5273438 0.269532,0 0.539063,-0.2226563 0.539063,-0.5273438 0,-0.2929687 -0.257813,-0.5390625 -0.539063,-0.5390625 -0.02344,0 -0.04687,0.011719 -0.07031,0.011719 z m 3.313476,2.203125 c -0.375,0.046875 -0.761718,0.1171875 -1.054687,0.3632812 -0.234375,0.2109375 -0.375,0.5507813 -0.375,0.8671875 0,1.6992188 2.765625,0.7382813 2.765625,2.2265625 0,0.60937504 -0.539063,0.89062504 -1.089844,0.89062504 -0.761719,0 -1.265625,-0.5390625 -1.40625,-1.39453124 -0.02344,-0.09375 -0.03516,-0.1875 -0.152344,-0.1875 -0.08203,0 -0.117187,0.070312 -0.117187,0.140625 v 1.57031249 c 0.01172,0.046875 0.03516,0.08203125 0.09375,0.09375 h 0.01172 c 0.164062,0 0.328125,-0.375 0.445312,-0.41015625 H 31.683 c 0.07031,0 0.339844,0.2578125 0.550781,0.328125 0.175781,0.05859375 0.351563,0.08203125 0.527344,0.08203125 0.832031,0 1.617187,-0.4453125 1.617187,-1.35937499 0,-0.65625 -0.480468,-1.1953125 -1.136718,-1.3710938 -0.621094,-0.1640625 -1.628907,-0.1640625 -1.628907,-0.890625 0,-0.609375 0.667969,-0.7617187 1.101563,-0.7617187 0.492187,0 1.171875,0.2695312 1.171875,1.125 0,0.09375 0,0.1757812 0.117187,0.1757812 0.09375,0 0.140625,-0.082031 0.140625,-0.1757812 0,-0.058594 -0.01172,-0.1054688 -0.01172,-0.140625 v -1.03125 c 0,-0.058594 -0.03516,-0.140625 -0.117188,-0.140625 -0.152344,0 -0.257812,0.2460937 -0.363281,0.2460937 h -0.01172 c -0.08203,0 -0.234375,-0.1289062 -0.351562,-0.1640625 -0.1875,-0.058594 -0.386719,-0.09375 -0.574219,-0.09375 -0.05859,0 -0.105469,0.011719 -0.164063,0.011719 z m 0,0"
       style="fill:#000000;fill-opacity:1;fill-rule:nonzero;stroke:none"
       aria-label="secret.js"
       transform="matrix(1.3333333,0,0,1.3333333,373.256,77.458667)" />
    <path
       id="path32"
       d="m 268.76099,-28.4428 h 42.5202 v 13.50105 h -42.5202 z"
       style="fill:none;stroke:#000000;stroke-width:0.3985;stroke-linecap:butt;stroke-linejoin:miter;stroke-miterlimit:10;stroke-dasharray:none;stroke-opacity:1"
       transform="matrix(1.3333333,0,0,-1.3333333,9.7146667,5.288)" />
    <path
       id="path33"
       d="m 0.36235156,-6.8087266 v 0.3046875 c 0.12890625,0 0.2578125,-0.011719 0.375,-0.011719 0.36328124,0 0.64453124,0.046875 0.64453124,0.4453125 v 5.32031249 c 0,0.38671875 -0.328125,0.4453125 -0.66796874,0.4453125 -0.12890625,0 -0.24609375,-0.0117188 -0.3515625,-0.0117188 v 0.3046875 H 3.4912578 c 0.2109375,0 0.4101563,0.0117187475 0.6210938,0.0117187475 1.0664062,0 2.3789062,-0.5039062475 2.3789062,-1.8984375375 0,-0.9492188 -1.125,-1.6523438 -1.9335937,-1.6523438 v -0.023437 c 0.75,-0.082031 1.6523437,-0.7148436 1.6523437,-1.5585936 v -0.070312 c -0.070312,-1.1367188 -1.359375,-1.6171875 -2.3554687,-1.6171875 -0.1992188,0 -0.3984375,0.011719 -0.5859375,0.011719 z m 1.85156254,3.375 h 1.78125 c 0.9609375,0 1.4882812,0.7382813 1.4882812,1.5585938 0,0.89062499 -0.6328125,1.57031249 -1.6523437,1.57031249 -0.1523438,0 -0.3164063,-0.0117188 -0.4804688,-0.0117188 H 2.5889141 c -0.2109375,0 -0.375,-0.0585938 -0.375,-0.31640625 z m 0,-0.2226562 v -2.484375 c 0,-0.2929688 0.140625,-0.3398438 0.3515625,-0.3632813 h 1.265625 c 0.5859375,0 1.0195312,0.2109375 1.3007812,0.796875 0.070312,0.1757813 0.1171875,0.3867188 0.1171875,0.5859375 -0.011719,0.8789063 -0.7851562,1.4765625 -1.6289062,1.4765625 -0.1171875,0 -0.2226563,-0.011719 -0.328125,-0.011719 z m 5.1123047,-0.6328125 v 0.3046875 h 0.1523437 c 0.328125,0 0.6210938,0.035156 0.6210938,0.4921875 v 2.75390624 c 0,0.41015625 -0.28125,0.421875 -0.7148438,0.421875 h -0.058594 v 0.3046875 H 9.740281 v -0.3046875 c -0.1289063,0 -0.2578125,0.0117188 -0.3867188,0.0117188 -0.3164062,0 -0.5859375,-0.0585938 -0.5859375,-0.421875 V -2.0509141 c 0,-0.84375 0.1992188,-2.1328125 1.1835938,-2.1328125 0.035156,0 0.058594,0 0.1054695,0.011719 v 0.011719 c -0.1523445,0.058594 -0.2343758,0.2109375 -0.2343758,0.375 0,0.234375 0.1523438,0.3867188 0.3867188,0.4335938 0.28125,0 0.46875,-0.1875 0.46875,-0.4335938 0,-0.3984375 -0.375,-0.6210937 -0.7265625,-0.6210937 -0.5976563,0 -1.125,0.5273437 -1.21875,1.0664062 L 8.72075,-4.4063828 Z m 5.9736332,-0.1757813 c -1.253907,0.1289063 -2.0625,1.1835938 -2.0625,2.34375 0,1.12500004 0.878906,2.22656254 2.214843,2.22656254 1.195313,0 2.191407,-0.984375 2.191407,-2.23828124 0,-1.1835938 -0.890625,-2.34375 -2.214844,-2.34375 -0.04687,0 -0.09375,0.011719 -0.128906,0.011719 z m -1.230469,2.5664063 v -0.4335938 c 0,-0.7617187 0.246094,-1.9101562 1.371094,-1.9101562 0.808593,0 1.265625,0.6796875 1.347656,1.4296875 0.02344,0.2226562 0.02344,0.4335937 0.02344,0.65625 0,0.6445312 -0.07031,1.45312499 -0.703125,1.81640624 -0.199218,0.12890625 -0.421875,0.1875 -0.65625,0.1875 -0.726562,0 -1.230468,-0.5625 -1.335937,-1.34765624 -0.02344,-0.1289063 -0.02344,-0.2578125 -0.04687,-0.3984375 z m 3.764648,-2.390625 v 0.3046875 h 0.152344 c 0.515625,0 0.539063,0.2226562 0.785156,0.9257812 0.246094,0.6914063 0.515625,1.3710938 0.75,2.06250004 l 0.292969,0.83203125 c 0.04687,0.1171875 0.07031,0.2578125 0.210938,0.26953125 h 0.02344 c 0.222656,0 0.363281,-0.66796875 0.492188,-1.0078125 0.175781,-0.52734374 0.363281,-1.05468754 0.5625,-1.58203124 0.04687,-0.140625 0.105468,-0.2695313 0.140625,-0.4101563 h 0.01172 c 0.02344,0.140625 0.09375,0.2695313 0.140625,0.4101563 l 0.28125,0.8085937 c 0.1875,0.515625 0.386719,1.03125004 0.5625,1.54687504 0.03516,0.10546875 0.08203,0.234375 0.222657,0.234375 0.210937,0 0.386718,-0.71484375 0.503906,-1.06640625 l 0.574219,-1.59374999 c 0.222656,-0.6210938 0.363281,-1.4296875 1.125,-1.4296875 v -0.3046875 h -1.652344 v 0.3046875 c 0.257812,0.011719 0.539062,0.1523437 0.574219,0.4335937 0,0.2695313 -0.175782,0.5976563 -0.257813,0.8554688 -0.164062,0.421875 -0.316406,0.8554687 -0.457031,1.2773437 -0.08203,0.2109375 -0.1875,0.43359379 -0.234375,0.65625004 H 20.627 C 20.580125,-1.0079453 20.451219,-1.3009141 20.34575,-1.5587266 20.123094,-2.2032578 19.877,-2.8360703 19.666063,-3.4923203 c -0.03516,-0.070312 -0.05859,-0.1523438 -0.05859,-0.234375 v -0.035156 c 0.04687,-0.2226562 0.375,-0.2226562 0.574219,-0.2226562 V -4.289195 h -1.933594 v 0.3046875 h 0.175781 c 0.386719,0 0.480469,0.1523437 0.609375,0.4921875 0.02344,0.070312 0.07031,0.1523437 0.07031,0.234375 -0.01172,0.09375 -0.05859,0.1875 -0.09375,0.2695312 l -0.5625,1.5820313 c -0.05859,0.1757812 -0.105469,0.3398437 -0.175782,0.50390624 C 18.154344,-1.1602891 18.072313,-1.4532578 17.966844,-1.7227891 17.8145,-2.1563828 17.662156,-2.5782578 17.509813,-3.0118516 l -0.175782,-0.5039062 c -0.02344,-0.058594 -0.05859,-0.1289063 -0.05859,-0.1992188 0,-0.2578125 0.363281,-0.2695312 0.585937,-0.2695312 v -0.3046875 z m 8.774414,-0.1757813 c -0.375,0.046875 -0.761718,0.1171875 -1.054687,0.3632813 -0.234375,0.2109375 -0.375,0.5507812 -0.375,0.8671875 0,1.6992187 2.765625,0.7382812 2.765625,2.2265625 0,0.60937499 -0.539063,0.89062499 -1.089844,0.89062499 -0.761719,0 -1.265625,-0.5390625 -1.40625,-1.39453129 -0.02344,-0.09375 -0.03516,-0.1875 -0.152344,-0.1875 -0.08203,0 -0.117187,0.070312 -0.117187,0.140625 v 1.57031254 c 0.01172,0.046875 0.03516,0.08203125 0.09375,0.09375 h 0.01172 c 0.164062,0 0.328125,-0.375 0.445312,-0.41015625 h 0.01172 c 0.07031,0 0.339844,0.2578125 0.550781,0.328125 0.175781,0.05859375 0.351563,0.08203125 0.527344,0.08203125 0.832031,0 1.617187,-0.4453125 1.617187,-1.35937504 0,-0.65625 -0.480468,-1.1953125 -1.136718,-1.3710937 -0.621094,-0.1640625 -1.628907,-0.1640625 -1.628907,-0.890625 0,-0.609375 0.667969,-0.7617188 1.101563,-0.7617188 0.492187,0 1.171875,0.2695313 1.171875,1.125 0,0.09375 0,0.1757813 0.117187,0.1757813 0.09375,0 0.140625,-0.082031 0.140625,-0.1757813 0,-0.058594 -0.01172,-0.1054687 -0.01172,-0.140625 v -1.03125 c 0,-0.058594 -0.03516,-0.140625 -0.117188,-0.140625 -0.152344,0 -0.257812,0.2460938 -0.363281,0.2460938 h -0.01172 c -0.08203,0 -0.234375,-0.1289063 -0.351562,-0.1640625 -0.1875,-0.058594 -0.386719,-0.09375 -0.574219,-0.09375 -0.05859,0 -0.105469,0.011719 -0.164063,0.011719 z m 3.28418,2.15625 h 2.871094 c 0.105469,0 0.164062,-0.070312 0.164062,-0.1875 0,-1.0546875 -0.65625,-1.96875 -1.769531,-1.96875 -1.21875,0 -2.097656,1.0898438 -2.097656,2.2734375 0,0.9140625 0.503906,1.73437504 1.382812,2.13281254 0.234375,0.09375 0.492188,0.1640625 0.75,0.1640625 h 0.02344 c 0.773437,0 1.40625,-0.43359375 1.675781,-1.20703124 0.01172,-0.023437 0.01172,-0.058594 0.01172,-0.09375 0,-0.070312 -0.03516,-0.1171875 -0.105469,-0.1171875 -0.152344,0 -0.210937,0.32812499 -0.269531,0.43359374 -0.257813,0.4453125 -0.726563,0.7265625 -1.253906,0.7265625 -0.363282,0 -0.679688,-0.2109375 -0.949219,-0.48046875 C 27.927781,-1.0899766 27.892625,-1.7345078 27.892625,-2.3087266 Z m 0.01172,-0.2109375 c 0,-0.7734375 0.410156,-1.7226562 1.230469,-1.7226562 h 0.04687 c 0.972656,0.09375 0.960937,1.125 1.066406,1.7226562 z m 3.571289,-1.7695312 v 0.3046875 h 0.152344 c 0.328125,0 0.621093,0.035156 0.621093,0.4921875 v 2.75390624 c 0,0.41015625 -0.28125,0.421875 -0.714843,0.421875 h -0.05859 v 0.3046875 H 33.8897 v -0.3046875 c -0.128906,0 -0.257812,0.0117188 -0.386718,0.0117188 -0.316407,0 -0.585938,-0.0585938 -0.585938,-0.421875 V -2.0509141 c 0,-0.84375 0.199219,-2.1328125 1.183594,-2.1328125 0.03516,0 0.05859,0 0.105469,0.011719 v 0.011719 c -0.152344,0.058594 -0.234375,0.2109375 -0.234375,0.375 0,0.234375 0.152343,0.3867188 0.386718,0.4335938 0.28125,0 0.46875,-0.1875 0.46875,-0.4335938 0,-0.3984375 -0.375,-0.6210937 -0.726562,-0.6210937 -0.597656,0 -1.125,0.5273437 -1.21875,1.0664062 l -0.01172,-1.0664062 z m 0,0"
       style="fill:#000000;fill-opacity:1;fill-rule:nonzero;stroke:none"
       aria-label="Browser"
       transform="matrix(1.3333333,0,0,1.3333333,372.99733,38.785333)" />
    <path
       id="path34"
       d="m 268.36247,-58.74246 -80.55214,-0.87911"
       style="fill:none;stroke:#000000;stroke-width:0.3985;stroke-linecap:butt;stroke-linejoin:miter;stroke-miterlimit:10;stroke-dasharray:none;stroke-opacity:1"
       transform="matrix(1.3333333,0,0,-1.3333333,9.7146667,5.288)" />
    <path
       id="path35"
       d="M -1.19551,1.59401 C -1.09587,0.99626 0,0.09961 0.29886,0 0,-0.09961 -1.09587,-0.99626 -1.19551,-1.59401"
       style="fill:none;stroke:#000000;stroke-width:0.31879;stroke-linecap:round;stroke-linejoin:round;stroke-miterlimit:10;stroke-dasharray:none;stroke-opacity:1"
       transform="matrix(-1.3332,0.01454667,0.01454667,1.3332,260.12847,84.7834)" />
    <path
       id="path36"
       d="M 4.75153,4.95078 C 4.75153,7.575 2.62422,9.7023 0,9.7023 c -2.62422,0 -4.75153,-2.1273 -4.75153,-4.75152 0,-2.62423 2.12731,-4.75153 4.75153,-4.75153 2.62422,0 4.75153,2.1273 4.75153,4.75153 z"
       style="fill:none;stroke:#000000;stroke-width:0.3985;stroke-linecap:butt;stroke-linejoin:miter;stroke-miterlimit:10;stroke-dasharray:none;stroke-opacity:1"
       transform="matrix(1.3333333,0,0,-1.3333333,280.03067,78.526667)" />
    <path
       id="path37"
       d="m 0.90254687,-6.0110937 v 0.3164062 c 0.42187503,0 0.90234373,-0.046875 1.28906253,-0.2578125 v 5.19140625 c 0,0.3984375 -0.375,0.45703125 -0.7617188,0.45703125 -0.1757812,0 -0.3398437,-0.0117188 -0.48046873,-0.0117188 v 0.3046875 H 4.1837969 v -0.3046875 c -0.1640625,0 -0.3398438,0.0117188 -0.4921875,0.0117188 -0.3984375,0 -0.75,-0.0585938 -0.75,-0.4453125 v -5.7304687 c 0,-0.09375 -0.035156,-0.1640625 -0.140625,-0.1640625 -0.140625,0 -0.3046875,0.1875 -0.421875,0.2695312 -0.4335938,0.2929688 -0.9726563,0.3632813 -1.47656253,0.3632813 z m 0,0"
       style="fill:#000000;fill-opacity:1;fill-rule:nonzero;stroke:none"
       aria-label="1"
       transform="matrix(1.3333333,0,0,1.3333333,276.71067,76.186667)" />
    <g
       id="g37"
       aria-label="query(a,c)"
       transform="matrix(1.3333333,0,0,1.3333333,291.05867,76.186667)">
      <path
         id="path38"
         d="m 4.4999453,-4.2884375 c 0,-0.046875 -0.023437,-0.1054687 -0.09375,-0.1054687 -0.1171875,0 -0.515625,0.3984375 -0.6796875,0.6914062 -0.2226562,-0.5390625 -0.609375,-0.703125 -0.9257812,-0.703125 -1.171875,0 -2.40234379,1.4765625 -2.40234379,2.9179688 0,0.98437495 0.5859375,1.59374995 1.31249999,1.59374995 0.4335938,0 0.8203125,-0.234375 1.1835938,-0.59765625 C 2.8007266,-0.14 2.4726016,1.2076563 2.4374453,1.3014063 2.3554141,1.5709375 2.2851016,1.6178125 1.7226016,1.6295313 c -0.1289063,0 -0.2226563,0 -0.2226563,0.1992187 0,0 0,0.1054688 0.1289063,0.1054688 0.3164062,0 0.6679687,-0.035156 0.9960937,-0.035156 0.328125,0 0.6914063,0.035156 1.0195313,0.035156 0.046875,0 0.1757812,0 0.1757812,-0.1992188 0,-0.1054687 -0.09375,-0.1054687 -0.2578125,-0.1054687 -0.46875,0 -0.46875,-0.070312 -0.46875,-0.1640625 0,-0.070312 0.011719,-0.1289063 0.035156,-0.2226563 z m -2.7539062,4.18359375 c -0.5976563,0 -0.6445313,-0.7734375 -0.6445313,-0.93749995 0,-0.4804688 0.2929688,-1.5703125 0.4570313,-1.9804688 0.3164062,-0.7382812 0.8320312,-1.1601562 1.2421875,-1.1601562 0.6445312,0 0.7851562,0.8085937 0.7851562,0.8789062 0,0.058594 -0.5507812,2.2382813 -0.5742187,2.2734375 -0.1523438,0.28125 -0.7148438,0.92578125 -1.265625,0.92578125 z M 8.2968203,-0.561875 c 0.1054688,0.41015625 0.4570313,0.66796875 0.8789063,0.66796875 0.3515625,0 0.5742187,-0.22265625 0.7382812,-0.5390625 C 10.089789,-0.79625 10.218695,-1.405625 10.218695,-1.4290625 c 0,-0.09375 -0.09375,-0.09375 -0.128906,-0.09375 -0.09375,0 -0.1054687,0.035156 -0.1406249,0.1757813 -0.1289063,0.56249995 -0.328125,1.24218745 -0.7382813,1.24218745 -0.2109375,0 -0.3164062,-0.12890625 -0.3164062,-0.45703125 0,-0.22265625 0.1289062,-0.6914062 0.1992187,-1.0429687 l 0.28125,-1.078125 c 0.035156,-0.140625 0.1289063,-0.5273438 0.1757813,-0.6679688 0.046875,-0.234375 0.140625,-0.609375 0.140625,-0.6679687 0,-0.1875 -0.140625,-0.2695313 -0.28125,-0.2695313 -0.058594,0 -0.3164063,0 -0.3867188,0.3398438 -0.1992187,0.7265625 -0.6328125,2.4726562 -0.75,2.99999995 -0.011719,0.046875 -0.4101562,0.84375 -1.1367187,0.84375 -0.515625,0 -0.6210938,-0.45703125 -0.6210938,-0.8203125 0,-0.56249995 0.28125,-1.34765625 0.5390625,-2.02734375 0.1171875,-0.3046875 0.1757813,-0.4453125 0.1757813,-0.6328125 0,-0.4453125 -0.328125,-0.8203125 -0.8203125,-0.8203125 -0.9492188,0 -1.3125,1.453125 -1.3125,1.5351563 0,0.1054687 0.09375,0.1054687 0.1171875,0.1054687 0.09375,0 0.1054687,-0.023437 0.1523437,-0.1875 0.2578125,-0.8671875 0.6328125,-1.2304687 1.0078125,-1.2304687 0.09375,0 0.2578125,0.011719 0.2578125,0.328125 0,0.234375 -0.1171875,0.5273437 -0.1757812,0.6796875 -0.3632813,0.984375 -0.5742188,1.6054687 -0.5742188,2.0859375 0,0.9492187 0.6796875,1.19531245 1.21875,1.19531245 0.65625,0 1.0195313,-0.4453125 1.1953125,-0.66796875 z M 12.372016,-2.29625 c 0.292968,0 1.03125,-0.023437 1.523437,-0.234375 0.703125,-0.2929687 0.75,-0.890625 0.75,-1.0195312 0,-0.4453125 -0.386719,-0.8554688 -1.066406,-0.8554688 -1.113281,0 -2.613281,0.9726563 -2.613281,2.7070313 0,1.0195312 0.585937,1.80468745 1.570312,1.80468745 1.417969,0 2.261719,-1.0546875 2.261719,-1.17187495 0,-0.058594 -0.07031,-0.1289063 -0.128906,-0.1289063 -0.04687,0 -0.07031,0.023437 -0.128907,0.09375 -0.785156,0.99609375 -1.875,0.99609375 -1.992187,0.99609375 -0.773438,0 -0.867188,-0.84375 -0.867188,-1.16015625 0,-0.1171875 0.01172,-0.4335937 0.164063,-1.03125 z m -0.46875,-0.2226562 c 0.386718,-1.5117188 1.417968,-1.6640625 1.675781,-1.6640625 0.46875,0 0.738281,0.2929687 0.738281,0.6328125 0,1.03125 -1.59375,1.03125 -2.003906,1.03125 z m 4.125,1.9335937 c -0.03516,0.15234375 -0.09375,0.375 -0.09375,0.421875 0,0.1875 0.140625,0.26953125 0.292968,0.26953125 0.117188,0 0.292969,-0.0703125 0.363282,-0.26953125 0.02344,-0.046875 0.363281,-1.3945312 0.398437,-1.5820312 0.08203,-0.328125 0.257813,-1.0195313 0.316406,-1.2890625 0.04687,-0.1289063 0.328125,-0.5976563 0.5625,-0.8203125 0.08203,-0.070312 0.375,-0.328125 0.796875,-0.328125 0.257813,0 0.410157,0.1171875 0.421875,0.1171875 -0.304687,0.046875 -0.515625,0.2929687 -0.515625,0.5507812 0,0.1640625 0.105469,0.3515625 0.375,0.3515625 0.269532,0 0.550782,-0.234375 0.550782,-0.5859375 0,-0.3515625 -0.328125,-0.65625 -0.832032,-0.65625 -0.644531,0 -1.089843,0.4921875 -1.277343,0.7734375 -0.08203,-0.4570312 -0.433594,-0.7734375 -0.902344,-0.7734375 -0.457031,0 -0.644531,0.3867188 -0.738281,0.5742188 -0.175782,0.3398437 -0.304688,0.9375 -0.304688,0.9609375 0,0.1054687 0.09375,0.1054687 0.117188,0.1054687 0.09375,0 0.105468,-0.011719 0.164062,-0.234375 0.175781,-0.703125 0.375,-1.1835937 0.726563,-1.1835937 0.175781,0 0.316406,0.082031 0.316406,0.4570312 0,0.2109375 -0.03516,0.3164063 -0.164063,0.8320313 z M 24.761664,-3.79625 c 0.04687,-0.140625 0.04687,-0.1523437 0.04687,-0.2226562 0,-0.1875 -0.140625,-0.2695313 -0.292969,-0.2695313 -0.105468,0 -0.257812,0.058594 -0.351562,0.1992188 -0.02344,0.058594 -0.09375,0.3632812 -0.140625,0.5390625 -0.07031,0.2578125 -0.140625,0.5273437 -0.199219,0.796875 l -0.445312,1.7929687 c -0.03516,0.15234375 -0.46875,0.85546875 -1.125,0.85546875 -0.503907,0 -0.621094,-0.4453125 -0.621094,-0.80859375 0,-0.4570312 0.175781,-1.078125 0.515625,-1.9570312 0.152344,-0.4101563 0.199219,-0.515625 0.199219,-0.7148438 0,-0.4453125 -0.328125,-0.8203125 -0.820313,-0.8203125 -0.949219,0 -1.3125,1.453125 -1.3125,1.5351563 0,0.1054687 0.09375,0.1054687 0.117188,0.1054687 0.09375,0 0.105468,-0.023437 0.152343,-0.1875 0.269532,-0.9375 0.667969,-1.2304687 1.007813,-1.2304687 0.08203,0 0.257812,0 0.257812,0.3164062 0,0.2460938 -0.105468,0.515625 -0.175781,0.703125 C 21.175722,-2.10875 20.99994,-1.54625 20.99994,-1.0775 c 0,0.890625 0.621094,1.18359375 1.21875,1.18359375 0.386719,0 0.726563,-0.1640625 0.996094,-0.4453125 -0.128906,0.515625 -0.246094,1.0078125 -0.644531,1.53515625 C 22.31244,1.5357813 21.93744,1.82875 21.480409,1.82875 c -0.140625,0 -0.597656,-0.035156 -0.761719,-0.421875 0.164063,0 0.292969,0 0.433594,-0.1171875 0.09375,-0.09375 0.199219,-0.2226562 0.199219,-0.41015625 0,-0.31640625 -0.269531,-0.3515625 -0.375,-0.3515625 -0.222656,0 -0.550781,0.1640625 -0.550781,0.64453125 0,0.5039063 0.433593,0.8671875 1.054687,0.8671875 1.019531,0 2.050781,-0.9023437 2.332031,-2.02734375 z m 0,0"
         style="fill:#000000;fill-opacity:1;fill-rule:nonzero;stroke:none" />
      <path
         id="path39"
         d="m 28.45307,2.39125 c 0,-0.035156 0,-0.046875 -0.164062,-0.2226562 -1.242188,-1.2539063 -1.570313,-3.1289063 -1.570313,-4.6640625 0,-1.7226563 0.386719,-3.4570313 1.605469,-4.7109375 0.128906,-0.1171875 0.128906,-0.1289063 0.128906,-0.1640625 0,-0.070312 -0.03516,-0.1054688 -0.09375,-0.1054688 -0.105468,0 -0.996093,0.6796875 -1.582031,1.9453125 -0.515625,1.1015625 -0.632812,2.203125 -0.632812,3.0351563 0,0.7851562 0.117187,1.99218745 0.65625,3.11718745 0.597656,1.21875005 1.453125,1.87500005 1.558593,1.87500005 0.05859,0 0.09375,-0.035156 0.09375,-0.1054688 z m 0,0"
         style="fill:#000000;fill-opacity:1;fill-rule:nonzero;stroke:none" />
      <path
         id="path40"
         d="m 32.747992,-3.7610937 c -0.175781,-0.375 -0.46875,-0.6445313 -0.914062,-0.6445313 -1.171875,0 -2.402344,1.4648438 -2.402344,2.9179688 0,0.93749995 0.550781,1.59374995 1.324219,1.59374995 0.199218,0 0.703125,-0.03515625 1.300781,-0.73828125 0.07031,0.41015625 0.421875,0.73828125 0.902344,0.73828125 0.351562,0 0.574218,-0.22265625 0.738281,-0.5390625 C 33.861273,-0.79625 33.99018,-1.405625 33.99018,-1.4290625 c 0,-0.09375 -0.08203,-0.09375 -0.117188,-0.09375 -0.09375,0 -0.105469,0.035156 -0.140625,0.1757813 -0.164062,0.6445312 -0.351562,1.24218745 -0.75,1.24218745 -0.269531,0 -0.304687,-0.2578125 -0.304687,-0.45703125 0,-0.22265625 0.02344,-0.3046875 0.128906,-0.7382812 0.117187,-0.421875 0.128906,-0.5273438 0.222656,-0.9023438 l 0.351563,-1.3945312 c 0.07031,-0.28125 0.07031,-0.2929688 0.07031,-0.3398438 0,-0.1640625 -0.117187,-0.2695312 -0.28125,-0.2695312 -0.246094,0 -0.386719,0.2226562 -0.421875,0.4453125 z m -0.644531,2.578125 c -0.04687,0.1757812 -0.04687,0.1992187 -0.199219,0.3632812 -0.445312,0.55078125 -0.84375,0.71484375 -1.125,0.71484375 -0.503906,0 -0.644531,-0.55078125 -0.644531,-0.93749995 0,-0.5039063 0.328125,-1.7226563 0.550781,-2.1796875 0.304688,-0.5976563 0.761719,-0.9609375 1.160156,-0.9609375 0.644532,0 0.785157,0.8203125 0.785157,0.8789062 0,0.058594 -0.02344,0.1171875 -0.03516,0.1640625 z m 4.224609,1.17187495 c 0,-0.65625 -0.257812,-1.04296875 -0.644531,-1.04296875 -0.328125,0 -0.527344,0.24609375 -0.527344,0.52734375 0,0.26953125 0.199219,0.52734375 0.527344,0.52734375 0.117188,0 0.246094,-0.03515625 0.351563,-0.12890625 0.02344,-0.0234375 0.03516,-0.0351563 0.04687,-0.0351563 0.01172,0 0.02344,0.0117188 0.02344,0.15234375 0,0.73828125 -0.351562,1.3359376 -0.679687,1.6640626 -0.105469,0.1054687 -0.105469,0.1289062 -0.105469,0.1640625 0,0.070312 0.04687,0.1054687 0.09375,0.1054687 0.117187,0 0.914062,-0.7617187 0.914062,-1.9335938 z m 6.351563,-3.77343745 c -0.164063,0 -0.304688,0 -0.445313,0.140625 -0.152343,0.1523437 -0.175781,0.3164062 -0.175781,0.3867187 0,0.234375 0.175781,0.3515625 0.363281,0.3515625 0.292969,0 0.5625,-0.2460937 0.5625,-0.6445312 0,-0.4804688 -0.46875,-0.8554688 -1.171875,-0.8554688 -1.347656,0 -2.671875,1.4296875 -2.671875,2.8359375 0,0.890625 0.574219,1.67578125 1.617188,1.67578125 1.417969,0 2.261719,-1.0546875 2.261719,-1.17187495 0,-0.058594 -0.07031,-0.1289063 -0.128907,-0.1289063 -0.04687,0 -0.07031,0.023437 -0.128906,0.09375 -0.785156,0.99609375 -1.875,0.99609375 -1.992187,0.99609375 -0.621094,0 -0.890625,-0.4921875 -0.890625,-1.08984375 0,-0.4101562 0.199218,-1.3710937 0.539062,-1.9921875 0.304688,-0.5625 0.855469,-0.9960937 1.40625,-0.9960937 0.328125,0 0.714844,0.1289062 0.855469,0.3984375 z m 0,0"
         style="fill:#000000;fill-opacity:1;fill-rule:nonzero;stroke:none" />
      <path
         id="path41"
         d="m 45.922797,-2.4954687 c 0,-0.7734375 -0.117188,-1.9804688 -0.65625,-3.1054688 -0.597656,-1.21875 -1.464844,-1.875 -1.558594,-1.875 -0.05859,0 -0.105469,0.046875 -0.105469,0.1054688 0,0.035156 0,0.046875 0.199219,0.234375 0.972656,0.984375 1.535156,2.5664062 1.535156,4.640625 0,1.71093745 -0.363281,3.4570312 -1.59375,4.7226562 -0.140625,0.1171875 -0.140625,0.1289063 -0.140625,0.1640625 0,0.058594 0.04687,0.1054688 0.105469,0.1054688 0.09375,0 0.996094,-0.6796875 1.582031,-1.94531255 0.503907,-1.1015625 0.632813,-2.20312495 0.632813,-3.04687495 z m 0,0"
         style="fill:#000000;fill-opacity:1;fill-rule:nonzero;stroke:none" />
    </g>
    <path
       id="path42"
       d="M 187.35211,-59.62656 H 164.33586"
       style="fill:none;stroke:#000000;stroke-width:0.3985;stroke-linecap:butt;stroke-linejoin:miter;stroke-miterlimit:10;stroke-dasharray:0.3985, 1.99255;stroke-dashoffset:0;stroke-opacity:1"
       transform="matrix(1.3333333,0,0,-1.3333333,9.7146667,5.288)" />
    <path
       id="path43"
       d="M -1.19551,1.59401 C -1.09587,0.99626 0,0.09961 0.29886,0 0,-0.09961 -1.09587,-0.99626 -1.19551,-1.59401"
       style="fill:none;stroke:#000000;stroke-width:0.31879;stroke-linecap:round;stroke-linejoin:round;stroke-miterlimit:10;stroke-dasharray:none;stroke-opacity:1"
       transform="matrix(-1.3333333,0,0,1.3333333,228.82915,84.79008)" />
    <path
       id="path44"
       d="M 4.75153,4.95078 C 4.75153,7.575 2.62422,9.7023 0,9.7023 c -2.62422,0 -4.75153,-2.1273 -4.75153,-4.75152 0,-2.62423 2.12731,-4.75153 4.75153,-4.75153 2.62422,0 4.75153,2.1273 4.75153,4.75153 z"
       style="fill:none;stroke:#000000;stroke-width:0.3985;stroke-linecap:butt;stroke-linejoin:miter;stroke-miterlimit:10;stroke-dasharray:none;stroke-opacity:1"
       transform="matrix(1.3333333,0,0,-1.3333333,243.864,80.097333)" />
    <path
       id="path45"
       d="M 0.88985156,-5.3199531 C 1.1242266,-5.8238594 1.4992266,-6.3394844 2.2140703,-6.3394844 c 0.9375,0 1.3476563,0.8554688 1.3476563,1.640625 0,0.9140625 -0.609375,1.6757813 -1.1835938,2.3320313 -0.5625,0.6679687 -1.171875,1.3007812 -1.74609374,1.95703123 -0.09375,0.09375 -0.12890625,0.15234375 -0.12890625,0.28125 v 0.1171875 H 4.1945391 l 0.28125,-1.74609373 H 4.2179766 c -0.070312,0.4570312 -0.023437,0.96093748 -0.5273438,0.96093748 H 3.2921953 c -0.2929687,0.0117188 -0.5859375,0.0234375 -0.8671875,0.0234375 -0.3984375,0 -0.7734375,-0.0117188 -1.1484375,-0.0117188 L 1.9562578,-1.4410469 c 0.28125,-0.2695312 0.5507813,-0.5390625 0.84375,-0.7851562 0.7382813,-0.6679688 1.6757813,-1.3828125 1.6757813,-2.484375 0,-1.125 -0.9609375,-1.9453125 -2.0859375,-1.9453125 -0.9609375,0 -1.88671879,0.7265625 -1.88671879,1.7929687 0,0.2460938 0.09375,0.5742188 0.51562499,0.5742188 0.2929688,0 0.5273438,-0.2109375 0.5273438,-0.515625 0,-0.2695313 -0.1992188,-0.5273438 -0.515625,-0.5273438 -0.046875,0 -0.09375,0.011719 -0.14062504,0.011719 z m 0,0"
       style="fill:#000000;fill-opacity:1;fill-rule:nonzero;stroke:none"
       aria-label="2"
       transform="matrix(1.3333333,0,0,1.3333333,240.544,77.757333)" />
    <path
       id="path46"
       d="m 163.87758,-59.62656 -46.38233,15.79523"
       style="fill:none;stroke:#000000;stroke-width:0.3985;stroke-linecap:butt;stroke-linejoin:miter;stroke-miterlimit:10;stroke-dasharray:2.98883, 2.98883;stroke-dashoffset:0;stroke-opacity:1"
       transform="matrix(1.3333333,0,0,-1.3333333,9.7146667,5.288)" />
    <path
       id="path47"
       d="M -1.19551,1.59401 C -1.09587,0.99626 0,0.09961 0.29886,0 0,-0.09961 -1.09587,-0.99626 -1.19551,-1.59401"
       style="fill:none;stroke:#000000;stroke-width:0.31879;stroke-linecap:round;stroke-linejoin:round;stroke-miterlimit:10;stroke-dasharray:none;stroke-opacity:1"
       transform="matrix(-1.2621067,-0.42981333,-0.42981333,1.2621067,166.37503,63.729773)" />
    <path
       id="path48"
       d="M 163.87758,-59.62656 117.50375,-72.1925"
       style="fill:none;stroke:#000000;stroke-width:0.3985;stroke-linecap:butt;stroke-linejoin:miter;stroke-miterlimit:10;stroke-dasharray:none;stroke-opacity:1"
       transform="matrix(1.3333333,0,0,-1.3333333,9.7146667,5.288)" />
    <path
       id="path49"
       d="M -1.19551,1.59401 C -1.09587,0.99626 0,0.09961 0.29886,0 0,-0.09961 -1.09587,-0.99626 -1.19551,-1.59401"
       style="fill:none;stroke:#000000;stroke-width:0.31879;stroke-linecap:round;stroke-linejoin:round;stroke-miterlimit:10;stroke-dasharray:none;stroke-opacity:1"
       transform="matrix(-1.2868667,0.34869333,0.34869333,1.2868667,166.38636,101.54465)" />
    <path
       id="path50"
       d="M 4.75153,4.95078 C 4.75153,7.575 2.62422,9.7023 0,9.7023 c -2.62422,0 -4.75153,-2.1273 -4.75153,-4.75152 0,-2.62423 2.12731,-4.75153 4.75153,-4.75153 2.62422,0 4.75153,2.1273 4.75153,4.75153 z"
       style="fill:none;stroke:#000000;stroke-width:0.3985;stroke-linecap:butt;stroke-linejoin:miter;stroke-miterlimit:10;stroke-dasharray:none;stroke-opacity:1"
       transform="matrix(1.3333333,0,0,-1.3333333,185.67467,90.245333)" />
    <path
       id="path51"
       d="m 1.0904453,-5.7766562 c 0.3398438,-0.46875 0.8671875,-0.6210938 1.40625,-0.6210938 0.5976563,0 0.8554688,0.5976563 0.8554688,1.1015625 0,0.6210938 -0.1992188,1.4414063 -0.8671875,1.640625 -0.234375,0.058594 -0.8203125,-0.011719 -0.8203125,0.1757813 v 0.035156 c 0.011719,0.070312 0.082031,0.082031 0.1640625,0.082031 h 0.1171875 c 0.1054687,0 0.2226562,-0.011719 0.3515625,-0.011719 0.9726562,0 1.2304687,0.9257813 1.2304687,1.640625 v 0.1523438 c -0.011719,0.63281245 -0.2929687,1.5117187 -1.1484375,1.5117187 -0.5507812,0 -1.21875,-0.2578125 -1.49999999,-0.76171875 0.0234375,0 0.0585938,0 0.09375,0 0.32812499,0 0.55078129,-0.24609375 0.55078129,-0.55078125 0,-0.28125 -0.1875,-0.515625 -0.46875,-0.5507812 H 0.9966953 c -0.3984375,0 -0.57421875,0.28125 -0.57421875,0.5859375 0,1.0429687 1.12500005,1.5585937 2.00390625,1.5585937 1.0664063,0 2.1210938,-0.78515625 2.1210938,-1.9335937 0,-0.9257813 -0.7851563,-1.6289063 -1.6640625,-1.7929688 0.7265625,-0.2578125 1.40625,-0.8671875 1.40625,-1.734375 0,-0.8789062 -0.9140625,-1.3945312 -1.8515625,-1.3945312 -0.7617188,0 -1.7460938,0.421875 -1.7460938,1.359375 0,0.328125 0.234375,0.515625 0.5039063,0.515625 0.2695312,0 0.5039062,-0.1992188 0.5039062,-0.5039063 0,-0.3046875 -0.2226562,-0.5039062 -0.5390625,-0.5039062 z m 0,0"
       style="fill:#000000;fill-opacity:1;fill-rule:nonzero;stroke:none"
       aria-label="3"
       transform="matrix(1.3333333,0,0,1.3333333,182.35467,87.905333)" />
    <path
       id="path52"
       d="m 3.9495625,-3.7844687 c -0.1640625,0 -0.3046875,0 -0.4453125,0.140625 -0.1523438,0.1523437 -0.1757813,0.3164062 -0.1757813,0.3867187 0,0.234375 0.1757813,0.3515625 0.3632813,0.3515625 0.2929687,0 0.5625,-0.2460937 0.5625,-0.6445312 0,-0.4804688 -0.46875,-0.8554688 -1.171875,-0.8554688 -1.3476563,0 -2.671875,1.4296875 -2.671875,2.8359375 0,0.890625 0.57421875,1.67578125 1.6171875,1.67578125 1.4179687,0 2.2617187,-1.0546875 2.2617187,-1.17187495 0,-0.058594 -0.070312,-0.1289063 -0.1289062,-0.1289063 -0.046875,0 -0.070312,0.023437 -0.1289063,0.09375 -0.7851562,0.99609375 -1.875,0.99609375 -1.9921875,0.99609375 -0.6210937,0 -0.890625,-0.4921875 -0.890625,-1.08984375 0,-0.4101562 0.1992188,-1.3710937 0.5390625,-1.9921875 0.3046875,-0.5625 0.8554688,-0.9960937 1.40625,-0.9960937 0.328125,0 0.7148438,0.1289062 0.8554688,0.3984375 z m 0,0"
       style="fill:#000000;fill-opacity:1;fill-rule:nonzero;stroke:none"
       aria-label="c"
       transform="matrix(1.3333333,0,0,1.3333333,196.70267,87.905333)" />
    <path
       id="path53"
       d="m 117.06146,-79.98561 151.04201,-0.15343"
       style="fill:none;stroke:#000000;stroke-width:0.3985;stroke-linecap:butt;stroke-linejoin:miter;stroke-miterlimit:10;stroke-dasharray:none;stroke-opacity:1"
       transform="matrix(1.3333333,0,0,-1.3333333,9.7146667,5.288)" />
    <path
       id="path54"
       d="M -1.19551,1.59401 C -1.09587,0.99626 0,0.09961 0.29886,0 0,-0.09961 -1.09587,-0.99626 -1.19551,-1.59401"
       style="fill:none;stroke:#000000;stroke-width:0.31879;stroke-linecap:round;stroke-linejoin:round;stroke-miterlimit:10;stroke-dasharray:none;stroke-opacity:1"
       transform="matrix(1.3333067,0.00133333,0.00133333,-1.3333067,367.18593,112.14003)" />
    <path
       id="path55"
       d="M 4.75153,4.95078 C 4.75153,7.575 2.62422,9.7023 0,9.7023 c -2.62422,0 -4.75153,-2.1273 -4.75153,-4.75152 0,-2.62423 2.12731,-4.75153 4.75153,-4.75153 2.62422,0 4.75153,2.1273 4.75153,4.75153 z"
       style="fill:none;stroke:#000000;stroke-width:0.3985;stroke-linecap:butt;stroke-linejoin:miter;stroke-miterlimit:10;stroke-dasharray:none;stroke-opacity:1"
       transform="matrix(1.3333333,0,0,-1.3333333,268.52933,106.40533)" />
    <path
       id="path56"
       d="M 0.28245312,-1.6515391 H 2.9308906 v 0.90234379 c 0,0.41015625 -0.3046875,0.43359375 -0.8320312,0.43359375 h -0.140625 v 0.3046875 h 2.71875 v -0.3046875 c -0.1289063,0 -0.2578125,0.0117188 -0.3867188,0.0117188 -0.3164062,0 -0.5859375,-0.0585938 -0.5859375,-0.4453125 V -1.6515391 h 0.984375 v -0.3046875 h -0.984375 v -4.4648437 c 0,-0.046875 0.011719,-0.09375 0.011719,-0.140625 0,-0.1171875 -0.023437,-0.1875 -0.1523438,-0.1875 -0.1640625,0 -0.1875,0.070312 -0.2578125,0.1757812 -0.9375,1.4179688 -1.875,2.8359375 -2.80078123,4.2539063 -0.1171875,0.1757812 -0.234375,0.328125 -0.234375,0.4921875 0,0.058594 0.0117188,0.1171875 0.0117185,0.1757812 z m 0.28125,-0.3046875 2.42578128,-3.703125 v 3.703125 z m 0,0"
       style="fill:#000000;fill-opacity:1;fill-rule:nonzero;stroke:none"
       aria-label="4"
       transform="matrix(1.3333333,0,0,1.3333333,265.20933,104.06533)" />
    <g
       id="g56"
       aria-label="Enc&#10;k&#10;(x+1)"
       transform="matrix(1.3333333,0,0,1.3333333,279.556,104.06533)">
      <path
         id="path57"
         d="m 7.0537031,-2.3195078 c 0.023437,-0.046875 0.046875,-0.1171875 0.046875,-0.140625 0,-0.011719 0,-0.1054688 -0.1171875,-0.1054688 -0.09375,0 -0.1054687,0.058594 -0.1289062,0.1171875 -0.6445313,1.47656254 -1.0195313,2.14453129 -2.71875,2.14453129 h -1.453125 c -0.140625,0 -0.1640625,0 -0.2226563,-0.0117188 -0.1054687,-0.0117188 -0.1289062,-0.0234375 -0.1289062,-0.10546875 0,-0.0234375 0,-0.046875 0.046875,-0.22265625 L 3.0576094,-3.3624766 h 0.984375 c 0.84375,0 0.84375,0.2109375 0.84375,0.4570313 0,0.070312 0,0.1875 -0.070312,0.4804687 -0.011719,0.058594 -0.023437,0.082031 -0.023437,0.1171875 0,0.046875 0.035156,0.1054688 0.1289062,0.1054688 0.082031,0 0.1054688,-0.046875 0.1523438,-0.1992188 l 0.5625,-2.3320312 c 0,-0.058594 -0.046875,-0.1054688 -0.1171875,-0.1054688 -0.09375,0 -0.1054688,0.058594 -0.140625,0.1757813 -0.2109375,0.7617187 -0.3867188,0.984375 -1.3007813,0.984375 h -0.9375 l 0.5976563,-2.4023438 c 0.082031,-0.3398437 0.09375,-0.3867187 0.5390625,-0.3867187 h 1.40625 c 1.2070312,0 1.5117187,0.2929687 1.5117187,1.1132812 0,0.234375 0,0.2578125 -0.046875,0.5273438 0,0.058594 -0.011719,0.1289062 -0.011719,0.1757812 0,0.046875 0.035156,0.1171875 0.1289062,0.1171875 0.1054688,0 0.1171875,-0.058594 0.140625,-0.2460937 L 7.6044844,-6.5031016 C 7.6279219,-6.7726328 7.5810469,-6.7726328 7.3349531,-6.7726328 H 2.2958906 c -0.1992187,0 -0.2929687,0 -0.2929687,0.1992187 0,0.1054688 0.09375,0.1054688 0.28125,0.1054688 0.3632812,0 0.6445312,0 0.6445312,0.1875 0,0.035156 0,0.058594 -0.046875,0.234375 l -1.3242187,5.27343749 c -0.09375,0.38671875 -0.1171875,0.46875 -0.90234377,0.46875 -0.1640625,0 -0.28125,0 -0.28125,0.1875 0,0.1171874975 0.09375,0.1171874975 0.28125,0.1171874975 H 5.8232344 c 0.234375,0 0.2460937,-0.0117187475 0.3164062,-0.1640624975 z m 1.7578125,1.73437499 c -0.035156,0.15234375 -0.09375,0.375 -0.09375,0.421875 0,0.1875 0.140625,0.26953125 0.2929688,0.26953125 0.1171875,0 0.2929687,-0.0703125 0.3632812,-0.26953125 0.011719,-0.0234375 0.1289063,-0.4921875 0.1875,-0.73828125 L 9.7841719,-1.8038828 c 0.058594,-0.2226563 0.1171875,-0.4335938 0.1757812,-0.6679688 0.035156,-0.1640625 0.1171879,-0.4570312 0.1289059,-0.4921875 0.140625,-0.3164062 0.667969,-1.21875 1.617188,-1.21875 0.445312,0 0.539062,0.3632813 0.539062,0.6914063 0,0.6210937 -0.492187,1.8984375 -0.644531,2.3320312 -0.09375,0.22265629 -0.105469,0.33984379 -0.105469,0.45703129 0,0.46875 0.351563,0.80859375 0.820313,0.80859375 0.9375,0 1.300781,-1.45312504 1.300781,-1.53515624 0,-0.09375 -0.08203,-0.09375 -0.117187,-0.09375 -0.09375,0 -0.09375,0.023437 -0.152344,0.1757812 -0.199219,0.67968754 -0.527344,1.24218754 -1.007813,1.24218754 -0.175781,0 -0.246093,-0.10546875 -0.246093,-0.328125 0,-0.2578125 0.09375,-0.4921875 0.1875,-0.71484374 0.1875,-0.5273438 0.597656,-1.6171875 0.597656,-2.1914063 0,-0.6679687 -0.421875,-1.0664062 -1.136719,-1.0664062 -0.902344,0 -1.382812,0.6445312 -1.558594,0.8671875 -0.04687,-0.5507813 -0.4570309,-0.8671875 -0.9140621,-0.8671875 -0.4570313,0 -0.6445313,0.3867187 -0.75,0.5742187 -0.1523438,0.3398438 -0.2929688,0.9257813 -0.2929688,0.9609375 0,0.1054688 0.09375,0.1054688 0.1171875,0.1054688 0.09375,0 0.1054688,-0.011719 0.1640625,-0.234375 0.1757813,-0.703125 0.375,-1.1835938 0.7265625,-1.1835938 0.1992188,0 0.3164063,0.1289063 0.3164063,0.4570313 0,0.2109375 -0.035156,0.3164062 -0.1640625,0.8320312 z M 17.86132,-3.7843516 c -0.164062,0 -0.304687,0 -0.445312,0.140625 -0.152344,0.1523438 -0.175781,0.3164063 -0.175781,0.3867188 0,0.234375 0.175781,0.3515625 0.363281,0.3515625 0.292969,0 0.5625,-0.2460938 0.5625,-0.6445313 0,-0.4804687 -0.46875,-0.8554687 -1.171875,-0.8554687 -1.347656,0 -2.671875,1.4296875 -2.671875,2.8359375 0,0.89062499 0.574219,1.67578124 1.617187,1.67578124 1.417969,0 2.261719,-1.0546875 2.261719,-1.17187504 0,-0.058594 -0.07031,-0.1289062 -0.128906,-0.1289062 -0.04687,0 -0.07031,0.023437 -0.128906,0.09375 -0.785157,0.99609374 -1.875,0.99609374 -1.992188,0.99609374 -0.621094,0 -0.890625,-0.4921875 -0.890625,-1.08984374 0,-0.4101563 0.199219,-1.3710938 0.539063,-1.9921875 0.304687,-0.5625 0.855468,-0.9960938 1.40625,-0.9960938 0.328125,0 0.714843,0.1289063 0.855468,0.3984375 z m 0,0"
         style="fill:#000000;fill-opacity:1;fill-rule:nonzero;stroke:none" />
      <path
         id="path58"
         d="m 20.39843,-3.1339609 c 0.01172,-0.011719 0.03516,-0.1054688 0.03516,-0.1171875 0,-0.035156 -0.03516,-0.09375 -0.117188,-0.09375 -0.140625,0 -0.714843,0.058594 -0.890625,0.070312 -0.05859,0.011719 -0.152343,0.011719 -0.152343,0.1640625 0,0.09375 0.09375,0.09375 0.175781,0.09375 0.339844,0 0.339844,0.046875 0.339844,0.1054687 0,0.046875 -0.01172,0.09375 -0.03516,0.1523438 l -0.972656,3.9492187 c -0.03516,0.1289063 -0.03516,0.140625 -0.03516,0.1523438 0,0.1054687 0.08203,0.2226562 0.234375,0.2226562 0.1875,0 0.28125,-0.140625 0.316406,-0.2929687 0.01172,-0.023437 0.316406,-1.25390629 0.339844,-1.34765629 0.503906,0.046875 0.902344,0.19921875 0.902344,0.5625 0,0.0351562 0,0.0703125 -0.02344,0.140625 -0.02344,0.10546875 -0.02344,0.140625 -0.02344,0.22265625 0,0.49218754 0.398437,0.71484374 0.738281,0.71484374 0.679687,0 0.890625,-1.05468749 0.890625,-1.06640624 0,-0.09375 -0.09375,-0.09375 -0.117188,-0.09375 -0.09375,0 -0.105468,0.0351563 -0.140625,0.1640625 -0.08203,0.3046875 -0.269531,0.79687504 -0.609375,0.79687504 -0.1875,0 -0.246093,-0.1757813 -0.246093,-0.3632813 0,-0.11718749 0,-0.12890624 0.04687,-0.30468749 0,-0.0234375 0.03516,-0.140625 0.03516,-0.22265625 0,-0.62109375 -0.84375,-0.71484375 -1.136719,-0.73828125 0.199219,-0.12890625 0.457031,-0.3515625 0.585938,-0.45703125 0.351562,-0.33984376 0.703125,-0.66796876 1.089843,-0.66796876 0.08203,0 0.175782,0.023437 0.234375,0.09375 -0.304687,0.046875 -0.363281,0.28125 -0.363281,0.38671876 0,0.15234375 0.117188,0.2578125 0.269531,0.2578125 0.199219,0 0.398438,-0.15234375 0.398438,-0.44531246 0,-0.2226563 -0.164063,-0.4804688 -0.527344,-0.4804688 -0.398437,0 -0.761719,0.28125 -1.125,0.60937501 -0.292969,0.28125 -0.515625,0.4921875 -0.808594,0.609375 z m 0,0"
         style="fill:#000000;fill-opacity:1;fill-rule:nonzero;stroke:none" />
      <path
         id="path59"
         d="m 26.416008,2.3914297 c 0,-0.035156 0,-0.046875 -0.164063,-0.2226563 -1.242187,-1.25390621 -1.570312,-3.12890621 -1.570312,-4.6640625 0,-1.7226562 0.386719,-3.4570312 1.605469,-4.7109375 0.128906,-0.1171875 0.128906,-0.1289062 0.128906,-0.1640625 0,-0.070312 -0.03516,-0.1054687 -0.09375,-0.1054687 -0.105469,0 -0.996094,0.6796875 -1.582031,1.9453125 -0.515625,1.1015625 -0.632813,2.203125 -0.632813,3.0351562 0,0.7851563 0.117188,1.99218754 0.65625,3.11718754 0.597656,1.21874996 1.453125,1.87499996 1.558594,1.87499996 0.05859,0 0.09375,-0.035156 0.09375,-0.1054687 z m 0,0"
         style="fill:#000000;fill-opacity:1;fill-rule:nonzero;stroke:none" />
      <path
         id="path60"
         d="m 30.324211,-3.0109141 c 0.05859,-0.2578125 0.292969,-1.171875 0.984375,-1.171875 0.04687,0 0.292969,0 0.503906,0.1289063 -0.28125,0.046875 -0.480469,0.3046875 -0.480469,0.5390625 0,0.1640625 0.105469,0.3515625 0.375,0.3515625 0.222657,0 0.539063,-0.1875 0.539063,-0.5859375 0,-0.515625 -0.585938,-0.65625 -0.925781,-0.65625 -0.574219,0 -0.925782,0.5273437 -1.042969,0.7617187 -0.257813,-0.65625 -0.785156,-0.7617187 -1.078125,-0.7617187 -1.042969,0 -1.605469,1.2890625 -1.605469,1.5351562 0,0.1054688 0.105469,0.1054688 0.117188,0.1054688 0.08203,0 0.117187,-0.023437 0.128906,-0.1171875 0.339844,-1.0546875 0.996094,-1.3007813 1.335937,-1.3007813 0.1875,0 0.539063,0.09375 0.539063,0.6679688 0,0.3046875 -0.164063,0.9726562 -0.539063,2.3671875 -0.152343,0.62109374 -0.503906,1.04296874 -0.949218,1.04296874 -0.05859,0 -0.28125,0 -0.492188,-0.12890625 0.246094,-0.0585938 0.46875,-0.26953125 0.46875,-0.5390625 0,-0.26953129 -0.222656,-0.35156249 -0.375,-0.35156249 -0.292969,0 -0.539062,0.25781249 -0.539062,0.57421874 0,0.45703125 0.492187,0.65625 0.9375,0.65625 0.65625,0 1.007812,-0.69140625 1.042968,-0.75 0.117188,0.36328125 0.480469,0.75 1.078125,0.75 1.019532,0 1.59375,-1.27734374 1.59375,-1.53515624 0,-0.09375 -0.09375,-0.09375 -0.128906,-0.09375 -0.08203,0 -0.105469,0.035156 -0.128906,0.1054687 -0.328125,1.06640629 -0.996094,1.31250004 -1.324219,1.31250004 -0.386719,0 -0.539062,-0.328125 -0.539062,-0.65625 0,-0.22265625 0.05859,-0.44531254 0.164062,-0.87890624 z m 0,0"
         style="fill:#000000;fill-opacity:1;fill-rule:nonzero;stroke:none" />
      <path
         id="path61"
         d="m 39.458977,-2.2960703 h 2.777343 c 0.140625,0 0.328125,0 0.328125,-0.1992188 0,-0.1992187 -0.1875,-0.1992187 -0.328125,-0.1992187 h -2.777343 v -2.7890625 c 0,-0.1289063 0,-0.328125 -0.199219,-0.328125 -0.199219,0 -0.199219,0.1992187 -0.199219,0.328125 v 2.7890625 h -2.789062 c -0.140625,0 -0.328125,0 -0.328125,0.1992187 0,0.1992188 0.1875,0.1992188 0.328125,0.1992188 h 2.789062 v 2.80078124 c 0,0.12890625 0,0.328125 0.199219,0.328125 0.199219,0 0.199219,-0.19921875 0.199219,-0.328125 z m 9.290039,-4.078125 c 0,-0.234375 0,-0.2578125 -0.234375,-0.2578125 -0.609375,0.6328125 -1.488282,0.6328125 -1.804688,0.6328125 v 0.3164062 c 0.199219,0 0.785156,0 1.300781,-0.2578125 v 5.15625004 c 0,0.3515625 -0.03516,0.48046875 -0.925781,0.48046875 H 46.768547 V 8.046875e-4 C 47.120109,-0.03435156 47.975578,-0.03435156 48.374016,-0.03435156 c 0.398437,0 1.265625,0 1.617187,0.0351562475 V -0.30388281 h -0.316406 c -0.902344,0 -0.925781,-0.1171875 -0.925781,-0.48046875 z m 4.933593,3.8789062 c 0,-0.7734375 -0.117187,-1.9804687 -0.65625,-3.1054687 -0.597656,-1.21875 -1.464843,-1.875 -1.558593,-1.875 -0.05859,0 -0.105469,0.046875 -0.105469,0.1054687 0,0.035156 0,0.046875 0.199219,0.234375 0.972656,0.984375 1.535156,2.5664063 1.535156,4.640625 0,1.71093754 -0.363281,3.45703129 -1.59375,4.7226563 -0.140625,0.1171875 -0.140625,0.1289062 -0.140625,0.1640625 0,0.058594 0.04687,0.1054687 0.105469,0.1054687 0.09375,0 0.996093,-0.6796875 1.582031,-1.94531246 0.503906,-1.1015625 0.632812,-2.20312504 0.632812,-3.04687504 z m 0,0"
         style="fill:#000000;fill-opacity:1;fill-rule:nonzero;stroke:none" />
    </g>
  </g>
</svg>
